<?xml version="1.0" encoding="utf-8" standalone="no"?>
<!DOCTYPE svg PUBLIC "-//W3C//DTD SVG 1.1//EN"
  "http://www.w3.org/Graphics/SVG/1.1/DTD/svg11.dtd">
<svg xmlns:xlink="http://www.w3.org/1999/xlink" width="518.643437pt" height="230.917031pt" viewBox="0 0 518.643437 230.917031" xmlns="http://www.w3.org/2000/svg" version="1.1">
 <metadata>
  <rdf:RDF xmlns:dc="http://purl.org/dc/elements/1.1/" xmlns:cc="http://creativecommons.org/ns#" xmlns:rdf="http://www.w3.org/1999/02/22-rdf-syntax-ns#">
   <cc:Work>
    <dc:type rdf:resource="http://purl.org/dc/dcmitype/StillImage"/>
    <dc:date>2026-01-14T20:34:38.067520</dc:date>
    <dc:format>image/svg+xml</dc:format>
    <dc:creator>
     <cc:Agent>
      <dc:title>Matplotlib v3.9.4, https://matplotlib.org/</dc:title>
     </cc:Agent>
    </dc:creator>
   </cc:Work>
  </rdf:RDF>
 </metadata>
 <defs>
  <style type="text/css">*{stroke-linejoin: round; stroke-linecap: butt}</style>
 </defs>
 <g id="figure_1">
  <g id="patch_1">
   <path d="M 0 230.917031 
L 518.643437 230.917031 
L 518.643437 -0 
L 0 -0 
z
" style="fill: #ffffff"/>
  </g>
  <g id="axes_1">
   <g id="patch_2">
    <path d="M 35.838438 205.587891 
L 511.443438 205.587891 
L 511.443438 18.912891 
L 35.838438 18.912891 
z
" style="fill: #ffffff"/>
   </g>
   <g id="patch_3">
    <path d="M 57.456847 205.587891 
L 80.8281 205.587891 
L 80.8281 154.878447 
L 57.456847 154.878447 
z
" clip-path="url(#p50ac2f88b1)" style="fill: url(#hcc87ff677d); stroke: #000000; stroke-width: 0.8; stroke-linejoin: miter"/>
   </g>
   <g id="patch_4">
    <path d="M 86.670913 205.587891 
L 110.042166 205.587891 
L 110.042166 151.934382 
L 86.670913 151.934382 
z
" clip-path="url(#p50ac2f88b1)" style="fill: url(#hcc87ff677d); stroke: #000000; stroke-width: 0.8; stroke-linejoin: miter"/>
   </g>
   <g id="patch_5">
    <path d="M 115.884979 205.587891 
L 139.256232 205.587891 
L 139.256232 150.572409 
L 115.884979 150.572409 
z
" clip-path="url(#p50ac2f88b1)" style="fill: url(#hcc87ff677d); stroke: #000000; stroke-width: 0.8; stroke-linejoin: miter"/>
   </g>
   <g id="patch_6">
    <path d="M 145.099046 205.587891 
L 168.470299 205.587891 
L 168.470299 147.655859 
L 145.099046 147.655859 
z
" clip-path="url(#p50ac2f88b1)" style="fill: url(#hcc87ff677d); stroke: #000000; stroke-width: 0.8; stroke-linejoin: miter"/>
   </g>
   <g id="patch_7">
    <path d="M 174.313112 205.587891 
L 197.684365 205.587891 
L 197.684365 151.136459 
L 174.313112 151.136459 
z
" clip-path="url(#p50ac2f88b1)" style="fill: url(#hcc87ff677d); stroke: #000000; stroke-width: 0.8; stroke-linejoin: miter"/>
   </g>
   <g id="patch_8">
    <path d="M 203.527178 205.587891 
L 226.898431 205.587891 
L 226.898431 151.315304 
L 203.527178 151.315304 
z
" clip-path="url(#p50ac2f88b1)" style="fill: url(#hcc87ff677d); stroke: #000000; stroke-width: 0.8; stroke-linejoin: miter"/>
   </g>
   <g id="patch_9">
    <path d="M 232.741245 205.587891 
L 256.112498 205.587891 
L 256.112498 146.486488 
L 232.741245 146.486488 
z
" clip-path="url(#p50ac2f88b1)" style="fill: url(#hcc87ff677d); stroke: #000000; stroke-width: 0.8; stroke-linejoin: miter"/>
   </g>
   <g id="patch_10">
    <path d="M 261.955311 205.587891 
L 285.326564 205.587891 
L 285.326564 148.302453 
L 261.955311 148.302453 
z
" clip-path="url(#p50ac2f88b1)" style="fill: url(#hcc87ff677d); stroke: #000000; stroke-width: 0.8; stroke-linejoin: miter"/>
   </g>
   <g id="patch_11">
    <path d="M 291.169377 205.587891 
L 314.54063 205.587891 
L 314.54063 147.39447 
L 291.169377 147.39447 
z
" clip-path="url(#p50ac2f88b1)" style="fill: url(#hcc87ff677d); stroke: #000000; stroke-width: 0.8; stroke-linejoin: miter"/>
   </g>
   <g id="patch_12">
    <path d="M 320.383444 205.587891 
L 343.754697 205.587891 
L 343.754697 145.977467 
L 320.383444 145.977467 
z
" clip-path="url(#p50ac2f88b1)" style="fill: url(#hcc87ff677d); stroke: #000000; stroke-width: 0.8; stroke-linejoin: miter"/>
   </g>
   <g id="patch_13">
    <path d="M 349.59751 205.587891 
L 372.968763 205.587891 
L 372.968763 149.059105 
L 349.59751 149.059105 
z
" clip-path="url(#p50ac2f88b1)" style="fill: url(#hcc87ff677d); stroke: #000000; stroke-width: 0.8; stroke-linejoin: miter"/>
   </g>
   <g id="patch_14">
    <path d="M 378.811576 205.587891 
L 402.182829 205.587891 
L 402.182829 150.66871 
L 378.811576 150.66871 
z
" clip-path="url(#p50ac2f88b1)" style="fill: url(#hcc87ff677d); stroke: #000000; stroke-width: 0.8; stroke-linejoin: miter"/>
   </g>
   <g id="patch_15">
    <path d="M 408.025643 205.587891 
L 431.396896 205.587891 
L 431.396896 149.994602 
L 408.025643 149.994602 
z
" clip-path="url(#p50ac2f88b1)" style="fill: url(#hcc87ff677d); stroke: #000000; stroke-width: 0.8; stroke-linejoin: miter"/>
   </g>
   <g id="patch_16">
    <path d="M 437.239709 205.587891 
L 460.610962 205.587891 
L 460.610962 153.420172 
L 437.239709 153.420172 
z
" clip-path="url(#p50ac2f88b1)" style="fill: url(#hcc87ff677d); stroke: #000000; stroke-width: 0.8; stroke-linejoin: miter"/>
   </g>
   <g id="patch_17">
    <path d="M 466.453775 205.587891 
L 489.825028 205.587891 
L 489.825028 153.502716 
L 466.453775 153.502716 
z
" clip-path="url(#p50ac2f88b1)" style="fill: url(#hcc87ff677d); stroke: #000000; stroke-width: 0.8; stroke-linejoin: miter"/>
   </g>
   <g id="patch_18">
    <path d="M 57.456847 154.878447 
L 80.8281 154.878447 
L 80.8281 74.01298 
L 57.456847 74.01298 
z
" clip-path="url(#p50ac2f88b1)" style="fill: url(#h63636f9b19); stroke: #000000; stroke-width: 0.8; stroke-linejoin: miter"/>
   </g>
   <g id="patch_19">
    <path d="M 86.670913 151.934382 
L 110.042166 151.934382 
L 110.042166 67.326927 
L 86.670913 67.326927 
z
" clip-path="url(#p50ac2f88b1)" style="fill: url(#h63636f9b19); stroke: #000000; stroke-width: 0.8; stroke-linejoin: miter"/>
   </g>
   <g id="patch_20">
    <path d="M 115.884979 150.572409 
L 139.256232 150.572409 
L 139.256232 65.510962 
L 115.884979 65.510962 
z
" clip-path="url(#p50ac2f88b1)" style="fill: url(#h63636f9b19); stroke: #000000; stroke-width: 0.8; stroke-linejoin: miter"/>
   </g>
   <g id="patch_21">
    <path d="M 145.099046 147.655859 
L 168.470299 147.655859 
L 168.470299 57.820626 
L 145.099046 57.820626 
z
" clip-path="url(#p50ac2f88b1)" style="fill: url(#h63636f9b19); stroke: #000000; stroke-width: 0.8; stroke-linejoin: miter"/>
   </g>
   <g id="patch_22">
    <path d="M 174.313112 151.136459 
L 197.684365 151.136459 
L 197.684365 63.667483 
L 174.313112 63.667483 
z
" clip-path="url(#p50ac2f88b1)" style="fill: url(#h63636f9b19); stroke: #000000; stroke-width: 0.8; stroke-linejoin: miter"/>
   </g>
   <g id="patch_23">
    <path d="M 203.527178 151.315304 
L 226.898431 151.315304 
L 226.898431 62.869559 
L 203.527178 62.869559 
z
" clip-path="url(#p50ac2f88b1)" style="fill: url(#h63636f9b19); stroke: #000000; stroke-width: 0.8; stroke-linejoin: miter"/>
   </g>
   <g id="patch_24">
    <path d="M 232.741245 146.486488 
L 256.112498 146.486488 
L 256.112498 52.909267 
L 232.741245 52.909267 
z
" clip-path="url(#p50ac2f88b1)" style="fill: url(#h63636f9b19); stroke: #000000; stroke-width: 0.8; stroke-linejoin: miter"/>
   </g>
   <g id="patch_25">
    <path d="M 261.955311 148.302453 
L 285.326564 148.302453 
L 285.326564 58.948726 
L 261.955311 58.948726 
z
" clip-path="url(#p50ac2f88b1)" style="fill: url(#h63636f9b19); stroke: #000000; stroke-width: 0.8; stroke-linejoin: miter"/>
   </g>
   <g id="patch_26">
    <path d="M 291.169377 147.39447 
L 314.54063 147.39447 
L 314.54063 53.789735 
L 291.169377 53.789735 
z
" clip-path="url(#p50ac2f88b1)" style="fill: url(#h63636f9b19); stroke: #000000; stroke-width: 0.8; stroke-linejoin: miter"/>
   </g>
   <g id="patch_27">
    <path d="M 320.383444 145.977467 
L 343.754697 145.977467 
L 343.754697 27.802176 
L 320.383444 27.802176 
z
" clip-path="url(#p50ac2f88b1)" style="fill: url(#h63636f9b19); stroke: #000000; stroke-width: 0.8; stroke-linejoin: miter"/>
   </g>
   <g id="patch_28">
    <path d="M 349.59751 149.059105 
L 372.968763 149.059105 
L 372.968763 55.75703 
L 349.59751 55.75703 
z
" clip-path="url(#p50ac2f88b1)" style="fill: url(#h63636f9b19); stroke: #000000; stroke-width: 0.8; stroke-linejoin: miter"/>
   </g>
   <g id="patch_29">
    <path d="M 378.811576 150.66871 
L 402.182829 150.66871 
L 402.182829 63.557424 
L 378.811576 63.557424 
z
" clip-path="url(#p50ac2f88b1)" style="fill: url(#h63636f9b19); stroke: #000000; stroke-width: 0.8; stroke-linejoin: miter"/>
   </g>
   <g id="patch_30">
    <path d="M 408.025643 149.994602 
L 431.396896 149.994602 
L 431.396896 64.355348 
L 408.025643 64.355348 
z
" clip-path="url(#p50ac2f88b1)" style="fill: url(#h63636f9b19); stroke: #000000; stroke-width: 0.8; stroke-linejoin: miter"/>
   </g>
   <g id="patch_31">
    <path d="M 437.239709 153.420172 
L 460.610962 153.420172 
L 460.610962 38.147673 
L 437.239709 38.147673 
z
" clip-path="url(#p50ac2f88b1)" style="fill: url(#h63636f9b19); stroke: #000000; stroke-width: 0.8; stroke-linejoin: miter"/>
   </g>
   <g id="patch_32">
    <path d="M 466.453775 153.502716 
L 489.825028 153.502716 
L 489.825028 41.738331 
L 466.453775 41.738331 
z
" clip-path="url(#p50ac2f88b1)" style="fill: url(#h63636f9b19); stroke: #000000; stroke-width: 0.8; stroke-linejoin: miter"/>
   </g>
   <g id="matplotlib.axis_1">
    <g id="xtick_1">
     <g id="line2d_1"/>
     <g id="text_1">
      <!-- 1 -->
      <g transform="translate(67.642473 213.212891) scale(0.06 -0.06)">
       <defs>
        <path id="BousungEG-Light-GB-31" d="M 1806 994 
L 1806 4338 
L 1738 4338 
L 681 4069 
L 681 3963 
Q 1494 3963 1500 3631 
L 1500 994 
Q 1500 581 775 581 
L 775 475 
L 2519 475 
L 2519 581 
Q 1806 581 1806 994 
z
" transform="scale(0.015625)"/>
       </defs>
       <use xlink:href="#BousungEG-Light-GB-31"/>
      </g>
     </g>
    </g>
    <g id="xtick_2">
     <g id="line2d_2"/>
     <g id="text_2">
      <!-- 2 -->
      <g transform="translate(96.856539 213.212891) scale(0.06 -0.06)">
       <defs>
        <path id="BousungEG-Light-GB-32" d="M 531 475 
L 2613 475 
L 2881 1213 
L 2806 1244 
Q 2469 756 1831 756 
L 550 756 
Q 606 1075 819 1294 
Q 1088 1638 1825 2113 
Q 2919 2775 2919 3319 
Q 2919 3750 2556 4088 
Q 2213 4394 1594 4400 
Q 1081 4400 719 4106 
Q 338 3788 331 3406 
Q 331 3288 406 3206 
Q 481 3131 588 3131 
Q 669 3131 731 3194 
Q 794 3256 794 3313 
Q 794 3488 731 3606 
Q 675 3706 700 3819 
Q 725 3956 994 4094 
Q 1225 4213 1594 4225 
Q 1975 4225 2250 4006 
Q 2594 3725 2594 3319 
Q 2594 2844 1744 2281 
Q 900 1694 606 1300 
Q 319 975 319 475 
L 531 475 
z
" transform="scale(0.015625)"/>
       </defs>
       <use xlink:href="#BousungEG-Light-GB-32"/>
      </g>
     </g>
    </g>
    <g id="xtick_3">
     <g id="line2d_3"/>
     <g id="text_3">
      <!-- 3 -->
      <g transform="translate(126.070606 213.212891) scale(0.06 -0.06)">
       <defs>
        <path id="BousungEG-Light-GB-33" d="M 2875 1463 
Q 2875 2156 2250 2375 
Q 2119 2419 2000 2450 
Q 2075 2494 2175 2544 
Q 2744 2831 2750 3413 
Q 2750 3825 2413 4138 
Q 2131 4400 1594 4400 
Q 1138 4400 825 4125 
Q 463 3838 463 3450 
Q 463 3350 531 3275 
Q 594 3213 681 3206 
Q 775 3206 831 3275 
Q 894 3338 894 3450 
Q 888 3588 819 3713 
Q 756 3831 963 4025 
Q 1213 4219 1594 4225 
Q 1900 4225 2156 4031 
Q 2425 3825 2425 3413 
Q 2425 2975 2113 2725 
Q 1825 2500 1656 2500 
Q 1575 2500 1500 2538 
Q 1419 2581 1344 2581 
Q 1169 2581 1163 2413 
Q 1163 2238 1344 2231 
Q 1406 2231 1494 2281 
Q 1569 2325 1656 2325 
Q 2000 2325 2275 2131 
Q 2544 1906 2550 1463 
Q 2550 994 2281 806 
Q 1956 594 1613 588 
Q 1231 594 956 738 
Q 656 913 663 1025 
Q 663 1125 706 1188 
Q 750 1250 756 1344 
Q 756 1456 694 1513 
Q 631 1575 550 1581 
Q 456 1581 394 1519 
Q 331 1444 325 1344 
Q 325 1000 656 719 
Q 1031 413 1613 413 
Q 2106 413 2481 675 
Q 2875 981 2875 1463 
z
" transform="scale(0.015625)"/>
       </defs>
       <use xlink:href="#BousungEG-Light-GB-33"/>
      </g>
     </g>
    </g>
    <g id="xtick_4">
     <g id="line2d_4"/>
     <g id="text_4">
      <!-- 4 -->
      <g transform="translate(155.284672 213.212891) scale(0.06 -0.06)">
       <defs>
        <path id="BousungEG-Light-GB-34" d="M 2263 1538 
L 2263 4338 
L 2119 4338 
L 206 1581 
L 206 1294 
L 1956 1294 
L 1956 938 
Q 1956 581 1375 581 
L 1375 475 
L 2844 475 
L 2844 581 
Q 2263 581 2263 938 
L 2263 1294 
L 2994 1294 
L 2994 1538 
L 2263 1538 
z
M 1956 1538 
L 350 1538 
L 1956 3894 
L 1956 1538 
z
" transform="scale(0.015625)"/>
       </defs>
       <use xlink:href="#BousungEG-Light-GB-34"/>
      </g>
     </g>
    </g>
    <g id="xtick_5">
     <g id="line2d_5"/>
     <g id="text_5">
      <!-- 5 -->
      <g transform="translate(184.498738 213.212891) scale(0.06 -0.06)">
       <defs>
        <path id="BousungEG-Light-GB-35" d="M 2688 4263 
L 650 4263 
L 650 2425 
L 694 2375 
Q 1150 2569 1525 2575 
Q 1925 2575 2206 2356 
Q 2569 2069 2575 1544 
Q 2575 1088 2238 813 
Q 1938 588 1588 588 
Q 1188 588 919 744 
Q 669 894 669 956 
Q 669 1013 700 1069 
Q 725 1106 738 1169 
Q 738 1250 669 1319 
Q 606 1394 519 1394 
Q 438 1394 369 1338 
Q 306 1275 306 1169 
Q 306 919 625 713 
Q 1056 413 1588 413 
Q 2131 413 2488 694 
Q 2900 1019 2900 1544 
Q 2900 2188 2481 2544 
Q 2156 2813 1688 2819 
Q 1138 2819 750 2519 
L 750 3950 
L 2550 3950 
L 2688 4263 
z
" transform="scale(0.015625)"/>
       </defs>
       <use xlink:href="#BousungEG-Light-GB-35"/>
      </g>
     </g>
    </g>
    <g id="xtick_6">
     <g id="line2d_6"/>
     <g id="text_6">
      <!-- 6 -->
      <g transform="translate(213.712805 213.212891) scale(0.06 -0.06)">
       <defs>
        <path id="BousungEG-Light-GB-36" d="M 775 3769 
Q 319 3069 313 2088 
Q 313 1319 681 881 
Q 1081 413 1638 413 
Q 2163 413 2513 738 
Q 2894 1113 2894 1631 
Q 2894 2313 2544 2625 
Q 2238 2906 1831 2906 
Q 1281 2906 638 2344 
Q 675 3306 1038 3775 
Q 1381 4263 1850 4263 
Q 2075 4263 2256 4119 
Q 2425 4000 2388 3913 
Q 2344 3831 2350 3706 
Q 2350 3625 2413 3563 
Q 2475 3506 2550 3506 
Q 2613 3506 2681 3556 
Q 2756 3619 2756 3706 
Q 2756 3988 2463 4194 
Q 2175 4400 1850 4400 
Q 1206 4400 775 3769 
z
M 638 2088 
Q 638 2113 638 2144 
Q 1338 2656 1700 2663 
Q 2100 2663 2338 2425 
Q 2569 2181 2569 1631 
Q 2569 1081 2313 831 
Q 2025 588 1638 588 
Q 1225 588 925 938 
Q 638 1294 638 2088 
z
" transform="scale(0.015625)"/>
       </defs>
       <use xlink:href="#BousungEG-Light-GB-36"/>
      </g>
     </g>
    </g>
    <g id="xtick_7">
     <g id="line2d_7"/>
     <g id="text_7">
      <!-- 7 -->
      <g transform="translate(242.926871 213.212891) scale(0.06 -0.06)">
       <defs>
        <path id="BousungEG-Light-GB-37" d="M 2875 4275 
L 663 4275 
L 313 3063 
L 413 3031 
Q 719 3675 1006 3800 
Q 1331 3956 1919 3963 
L 2663 3963 
Q 1838 2850 1531 2138 
Q 1231 1419 1231 788 
Q 1231 631 1275 563 
Q 1319 500 1413 500 
Q 1494 500 1550 569 
Q 1606 631 1606 788 
Q 1606 1788 1863 2438 
Q 2150 3119 2875 4056 
L 2875 4275 
z
" transform="scale(0.015625)"/>
       </defs>
       <use xlink:href="#BousungEG-Light-GB-37"/>
      </g>
     </g>
    </g>
    <g id="xtick_8">
     <g id="line2d_8"/>
     <g id="text_8">
      <!-- 8 -->
      <g transform="translate(272.140938 213.212891) scale(0.06 -0.06)">
       <defs>
        <path id="BousungEG-Light-GB-38" d="M 1613 413 
Q 2213 413 2606 769 
Q 2944 1056 2944 1488 
Q 2944 1738 2738 1981 
Q 2513 2263 1813 2563 
Q 2400 2863 2563 3075 
Q 2719 3281 2725 3500 
Q 2725 3913 2325 4169 
Q 2025 4400 1600 4400 
Q 1113 4400 788 4138 
Q 431 3850 431 3425 
Q 431 3138 675 2863 
Q 831 2669 1219 2463 
Q 631 2194 469 1956 
Q 256 1669 256 1425 
Q 256 1006 625 725 
Q 1038 419 1613 413 
z
M 2475 1788 
Q 2650 1594 2650 1406 
Q 2650 1031 2344 813 
Q 2000 588 1613 588 
Q 1175 588 850 856 
Q 581 1069 581 1425 
Q 581 1656 744 1900 
Q 856 2094 1413 2369 
Q 1531 2325 1669 2256 
Q 2294 1994 2475 1788 
z
M 875 3094 
Q 700 3300 700 3531 
Q 700 3813 950 4019 
Q 1219 4225 1600 4225 
Q 1944 4225 2200 4044 
Q 2450 3838 2456 3563 
Q 2456 3313 2281 3081 
Q 2106 2856 1631 2638 
Q 1050 2888 875 3094 
z
" transform="scale(0.015625)"/>
       </defs>
       <use xlink:href="#BousungEG-Light-GB-38"/>
      </g>
     </g>
    </g>
    <g id="xtick_9">
     <g id="line2d_9"/>
     <g id="text_9">
      <!-- 9 -->
      <g transform="translate(301.355004 213.212891) scale(0.06 -0.06)">
       <defs>
        <path id="BousungEG-Light-GB-39" d="M 2444 963 
Q 2881 1581 2888 2494 
Q 2888 3456 2550 3913 
Q 2194 4400 1581 4400 
Q 1031 4400 675 4050 
Q 281 3631 281 3094 
Q 281 2544 606 2175 
Q 944 1831 1481 1825 
Q 2106 1825 2556 2481 
Q 2556 1500 2163 1006 
Q 1788 569 1344 569 
Q 1119 569 938 663 
Q 781 738 781 938 
Q 775 1088 725 1156 
Q 663 1238 563 1238 
Q 488 1231 425 1175 
Q 363 1119 369 1006 
Q 369 800 656 613 
Q 944 419 1344 413 
Q 2056 413 2444 963 
z
M 875 3925 
Q 1144 4225 1581 4225 
Q 2013 4225 2306 3856 
Q 2519 3569 2556 2738 
Q 2344 2456 2138 2294 
Q 1819 2069 1481 2069 
Q 1156 2069 888 2325 
Q 606 2575 606 3094 
Q 606 3619 875 3925 
z
" transform="scale(0.015625)"/>
       </defs>
       <use xlink:href="#BousungEG-Light-GB-39"/>
      </g>
     </g>
    </g>
    <g id="xtick_10">
     <g id="line2d_10"/>
     <g id="text_10">
      <!-- 10 -->
      <g transform="translate(329.06907 213.212891) scale(0.06 -0.06)">
       <defs>
        <path id="BousungEG-Light-GB-30" d="M 731 3794 
Q 313 3206 313 2331 
Q 313 1538 713 994 
Q 1131 413 1619 413 
Q 2094 413 2488 988 
Q 2888 1575 2894 2394 
Q 2894 3294 2488 3875 
Q 2144 4400 1631 4400 
Q 1144 4400 731 3794 
z
M 975 3681 
Q 1300 4225 1631 4225 
Q 1931 4225 2200 3806 
Q 2563 3219 2569 2394 
Q 2569 1513 2219 981 
Q 1931 588 1619 588 
Q 1319 588 988 1044 
Q 644 1538 638 2331 
Q 638 3063 975 3681 
z
" transform="scale(0.015625)"/>
       </defs>
       <use xlink:href="#BousungEG-Light-GB-31"/>
       <use xlink:href="#BousungEG-Light-GB-30" x="50"/>
      </g>
     </g>
    </g>
    <g id="xtick_11">
     <g id="line2d_11"/>
     <g id="text_11">
      <!-- 11 -->
      <g transform="translate(358.283137 213.212891) scale(0.06 -0.06)">
       <use xlink:href="#BousungEG-Light-GB-31"/>
       <use xlink:href="#BousungEG-Light-GB-31" x="50"/>
      </g>
     </g>
    </g>
    <g id="xtick_12">
     <g id="line2d_12"/>
     <g id="text_12">
      <!-- 12 -->
      <g transform="translate(387.497203 213.212891) scale(0.06 -0.06)">
       <use xlink:href="#BousungEG-Light-GB-31"/>
       <use xlink:href="#BousungEG-Light-GB-32" x="50"/>
      </g>
     </g>
    </g>
    <g id="xtick_13">
     <g id="line2d_13"/>
     <g id="text_13">
      <!-- 13 -->
      <g transform="translate(416.711269 213.212891) scale(0.06 -0.06)">
       <use xlink:href="#BousungEG-Light-GB-31"/>
       <use xlink:href="#BousungEG-Light-GB-33" x="50"/>
      </g>
     </g>
    </g>
    <g id="xtick_14">
     <g id="line2d_14"/>
     <g id="text_14">
      <!-- 14 -->
      <g transform="translate(445.925336 213.212891) scale(0.06 -0.06)">
       <use xlink:href="#BousungEG-Light-GB-31"/>
       <use xlink:href="#BousungEG-Light-GB-34" x="50"/>
      </g>
     </g>
    </g>
    <g id="xtick_15">
     <g id="line2d_15"/>
     <g id="text_15">
      <!-- 15 -->
      <g transform="translate(475.139402 213.212891) scale(0.06 -0.06)">
       <use xlink:href="#BousungEG-Light-GB-31"/>
       <use xlink:href="#BousungEG-Light-GB-35" x="50"/>
      </g>
     </g>
    </g>
    <g id="text_16">
     <!-- 意图编号 -->
     <g transform="translate(260.640938 223.126953) scale(0.065 -0.065)">
      <defs>
       <path id="BousungEG-Light-GB-610f" d="M 5275 3619 
L 3800 3619 
Q 4006 3831 4113 3975 
Q 4213 4150 4400 4138 
Q 4438 4131 4456 4163 
Q 4463 4200 4394 4250 
Q 4219 4369 4038 4475 
L 4650 4475 
L 5225 4475 
Q 5306 4481 5338 4519 
Q 5381 4581 5313 4669 
Q 5200 4806 5038 4969 
Q 4994 5013 4950 4969 
L 4725 4713 
Q 4688 4669 4650 4669 
L 3294 4669 
Q 3413 4919 3388 5056 
Q 3325 5250 2813 5450 
Q 2738 5488 2706 5450 
Q 2681 5413 2719 5375 
Q 3113 4981 3113 4681 
Q 3113 4681 3119 4669 
L 1469 4669 
Q 1181 4669 944 4719 
Q 900 4744 875 4725 
Q 856 4700 900 4656 
Q 994 4581 1019 4469 
Q 1038 4413 1088 4431 
Q 1281 4469 1544 4475 
L 1900 4475 
Q 1900 4469 1919 4444 
Q 2238 4088 2306 3694 
Q 2313 3650 2325 3619 
L 794 3619 
Q 506 3619 269 3669 
Q 225 3694 200 3675 
Q 181 3650 225 3606 
Q 319 3531 344 3419 
Q 363 3363 413 3381 
Q 606 3419 869 3425 
L 5275 3425 
L 5850 3425 
Q 5931 3431 5963 3469 
Q 6006 3531 5938 3619 
Q 5825 3756 5663 3919 
Q 5619 3963 5575 3919 
L 5350 3663 
Q 5313 3619 5275 3619 
z
M 2531 3719 
Q 2625 3906 2606 4025 
Q 2569 4231 2088 4475 
L 3919 4475 
Q 3844 4063 3644 3694 
Q 3606 3656 3600 3619 
L 2469 3619 
Q 2494 3656 2531 3719 
z
M 4475 1475 
L 4475 1263 
Q 4475 1200 4506 1194 
Q 4550 1194 4769 1319 
Q 4825 1344 4813 1419 
Q 4775 1763 4775 1963 
L 4775 2663 
Q 4775 2744 4800 2800 
Q 4838 2863 4913 2875 
Q 4975 2881 4994 2919 
Q 5000 2956 4963 2994 
Q 4788 3131 4606 3250 
Q 4563 3294 4519 3244 
L 4406 3069 
Q 4388 3044 4350 3044 
L 1675 3044 
Q 1594 3106 1519 3181 
Q 1463 3238 1438 3219 
Q 1413 3213 1413 3156 
Q 1419 3038 1425 2875 
L 1425 1563 
Q 1419 1406 1406 1244 
Q 1400 1181 1494 1219 
Q 1631 1275 1694 1300 
Q 1719 1306 1725 1356 
L 1725 1475 
L 4475 1475 
z
M 1725 2175 
L 4475 2175 
L 4475 1669 
L 1725 1669 
L 1725 2175 
z
M 1725 2850 
L 4475 2850 
L 4475 2369 
L 1725 2369 
L 1725 2850 
z
M 1213 1006 
Q 1063 331 625 56 
Q 419 -75 525 -244 
Q 563 -300 650 -319 
Q 731 -338 850 -263 
Q 1281 113 1313 988 
Q 1319 1050 1269 1056 
Q 1225 1063 1213 1006 
z
M 2794 1319 
Q 3175 919 3256 494 
Q 3275 375 3338 369 
Q 3413 369 3481 519 
Q 3575 706 3550 825 
Q 3506 1075 2888 1394 
Q 2813 1438 2788 1400 
Q 2763 1363 2794 1319 
z
M 4769 1069 
Q 5350 544 5531 -88 
Q 5556 -206 5619 -206 
Q 5681 -206 5756 -56 
Q 5838 131 5825 250 
Q 5750 644 4863 1144 
Q 4788 1188 4763 1150 
Q 4738 1113 4769 1069 
z
M 3756 -125 
L 2444 -125 
Q 2294 -125 2213 -38 
Q 2131 44 2125 219 
L 2125 338 
Q 2125 719 2169 831 
Q 2194 888 2288 944 
Q 2388 1000 2306 1050 
Q 2188 1094 1856 1206 
Q 1794 1225 1800 1125 
Q 1825 825 1825 338 
L 1825 150 
Q 1825 -119 1975 -275 
Q 2106 -425 2438 -425 
L 3656 -425 
Q 4219 -425 4581 -13 
Q 4625 31 4588 63 
Q 4531 88 4494 206 
Q 4438 344 4494 831 
Q 4500 913 4438 925 
Q 4375 931 4356 844 
Q 4200 88 4038 -25 
Q 3938 -125 3756 -125 
z
" transform="scale(0.015625)"/>
       <path id="BousungEG-Light-GB-56fe" d="M 3150 2763 
Q 2550 2275 1419 1975 
Q 1300 1975 1294 1881 
Q 1294 1788 1425 1794 
Q 2650 2094 3344 2581 
Q 3725 2225 4681 1856 
Q 4744 1831 4763 1888 
Q 4856 2188 5219 2213 
Q 5263 2213 5263 2250 
Q 5263 2294 5219 2306 
Q 4075 2456 3600 2744 
Q 3581 2750 3569 2763 
Q 3925 3088 4156 3550 
Q 4294 3831 4513 3881 
Q 4594 3906 4563 3956 
Q 4188 4350 4150 4350 
Q 4113 4350 4088 4300 
L 3919 4088 
Q 3894 4069 3813 4069 
L 2813 4069 
Q 3000 4444 3150 4456 
Q 3244 4463 3256 4500 
Q 3275 4525 3213 4563 
Q 3019 4663 2756 4781 
Q 2700 4800 2688 4731 
Q 2381 3644 1538 2800 
Q 1494 2756 1519 2713 
Q 1556 2669 1619 2725 
Q 2181 3156 2544 3675 
Q 2831 3075 3150 2763 
z
M 2688 3875 
L 3944 3875 
Q 3713 3288 3331 2925 
Q 2900 3356 2644 3819 
Q 2663 3844 2688 3875 
z
M 2869 1931 
Q 3169 1763 3444 1325 
Q 3506 1206 3550 1213 
Q 3588 1219 3663 1325 
Q 3738 1425 3706 1569 
Q 3663 1775 2944 2044 
Q 2850 2088 2831 2025 
Q 2806 1963 2869 1931 
z
M 2381 1094 
Q 3081 938 3800 300 
Q 3894 200 3931 219 
Q 3969 238 4013 350 
Q 4056 469 4000 606 
Q 3938 744 3619 881 
Q 3163 1094 2431 1219 
Q 2331 1238 2325 1175 
Q 2319 1113 2381 1094 
z
M 5306 -25 
Q 5300 -238 5288 -413 
Q 5281 -513 5306 -525 
Q 5331 -531 5613 -369 
Q 5675 -331 5675 -250 
Q 5631 369 5625 794 
L 5625 4869 
Q 5625 4931 5675 4988 
Q 5731 5044 5838 5063 
Q 5894 5069 5850 5119 
Q 5713 5238 5519 5381 
Q 5463 5419 5431 5375 
L 5275 5213 
Q 5231 5169 5156 5169 
L 1038 5169 
Q 794 5363 788 5363 
Q 769 5356 781 5294 
Q 819 5006 825 4806 
L 825 831 
Q 806 169 781 -456 
Q 775 -575 813 -581 
Q 838 -581 888 -556 
Q 1119 -400 1125 -306 
Q 1119 -169 1119 -25 
L 5306 -25 
z
M 1125 831 
L 1125 4975 
L 5325 4975 
L 5325 613 
Q 5319 381 5313 169 
L 1119 169 
Q 1119 475 1125 831 
z
" transform="scale(0.015625)"/>
       <path id="BousungEG-Light-GB-7f16" d="M 5350 3300 
L 5350 3069 
Q 5344 3006 5388 3006 
Q 5431 3006 5656 3125 
Q 5681 3144 5675 3200 
Q 5650 3331 5650 3400 
L 5650 4275 
Q 5650 4300 5669 4344 
Q 5688 4381 5738 4388 
Q 5800 4394 5806 4425 
Q 5813 4450 5775 4494 
Q 5656 4625 5525 4738 
Q 5469 4794 5419 4719 
L 5306 4581 
Q 5288 4563 5238 4569 
L 4213 4569 
Q 4313 4631 4331 4788 
Q 4338 4850 4238 4988 
Q 4100 5163 3825 5375 
Q 3750 5438 3713 5394 
Q 3669 5350 3719 5300 
Q 3913 5050 4000 4638 
Q 4006 4600 4019 4569 
L 2744 4569 
Q 2631 4644 2563 4713 
Q 2519 4756 2488 4750 
Q 2463 4731 2469 4681 
Q 2525 4431 2531 4194 
L 2531 3738 
Q 2531 1900 2275 1025 
Q 2050 275 1281 -381 
Q 1219 -425 1256 -488 
Q 1300 -550 1381 -500 
Q 2319 175 2594 1069 
Q 2781 1713 2819 3300 
L 5350 3300 
z
M 2831 4019 
L 2831 4375 
L 5350 4375 
L 5350 3494 
L 2825 3494 
Q 2831 3744 2831 4019 
z
M 4938 1250 
L 5550 1250 
L 5550 106 
Q 5550 -25 5506 -50 
Q 5469 -69 4856 -38 
Q 4775 -31 4769 -88 
Q 4763 -150 4838 -163 
Q 5106 -206 5225 -300 
Q 5344 -400 5388 -519 
Q 5406 -563 5456 -550 
Q 5625 -488 5738 -331 
Q 5850 -175 5850 38 
L 5850 2213 
Q 5850 2256 5869 2294 
Q 5888 2319 6038 2381 
Q 6138 2419 6094 2469 
Q 5944 2625 5750 2781 
Q 5725 2806 5700 2806 
Q 5675 2806 5663 2781 
L 5506 2575 
Q 5500 2569 5444 2569 
L 3144 2569 
Q 2994 2681 2919 2763 
Q 2875 2806 2856 2800 
Q 2831 2794 2844 2719 
Q 2869 2431 2875 2206 
L 2875 856 
Q 2869 -31 2844 -413 
Q 2838 -531 2888 -538 
Q 2925 -531 3144 -363 
Q 3169 -325 3175 856 
L 3175 1250 
L 3756 1250 
Q 3756 681 3725 -131 
Q 3719 -250 3794 -200 
Q 4056 -31 4063 25 
Q 4038 519 4038 1250 
L 4656 1250 
Q 4650 781 4625 169 
Q 4619 50 4694 100 
Q 4956 269 4963 325 
Q 4938 719 4938 1250 
z
M 4663 1569 
Q 4663 1513 4656 1444 
L 4044 1444 
L 4044 2375 
L 4663 2375 
L 4663 1569 
z
M 4944 1569 
L 4944 2375 
L 5550 2375 
L 5550 1444 
L 4938 1444 
Q 4938 1506 4944 1569 
z
M 3763 1444 
L 3175 1444 
L 3175 2206 
L 3175 2375 
L 3763 2375 
L 3763 1444 
z
M 781 1900 
Q 756 1938 850 2038 
Q 1213 2506 1544 3044 
Q 2088 3981 2294 4038 
Q 2338 4044 2344 4081 
Q 2350 4106 2300 4138 
Q 2144 4238 1894 4350 
Q 1856 4375 1838 4300 
Q 1706 3956 1556 3619 
Q 1081 3556 731 3431 
Q 688 3425 681 3444 
Q 663 3463 713 3544 
Q 906 3906 1081 4313 
Q 1344 5044 1525 5125 
Q 1569 5150 1569 5175 
Q 1569 5200 1519 5219 
Q 1350 5294 1113 5363 
Q 1075 5369 1069 5306 
Q 731 3713 275 3319 
Q 231 3294 275 3256 
Q 388 3181 469 3075 
Q 494 3050 525 3075 
Q 956 3319 1494 3481 
Q 888 2181 419 1831 
Q 381 1813 344 1781 
Q 288 1756 338 1706 
Q 456 1606 544 1475 
Q 569 1438 613 1469 
Q 1156 1813 2081 2088 
Q 2156 2106 2144 2169 
Q 2138 2225 2044 2206 
Q 1344 2088 850 1894 
Q 788 1869 781 1900 
z
M 331 725 
Q 269 719 256 694 
Q 250 675 331 613 
Q 469 513 556 356 
Q 581 313 606 313 
Q 631 319 669 375 
Q 744 494 994 594 
Q 1388 769 1994 1094 
Q 2088 1138 2063 1200 
Q 2044 1263 1963 1225 
Q 688 813 331 725 
z
" transform="scale(0.015625)"/>
       <path id="BousungEG-Light-GB-53f7" d="M 4425 3625 
L 4425 3363 
Q 4425 3300 4456 3294 
Q 4500 3294 4719 3419 
Q 4775 3444 4763 3519 
Q 4725 3863 4725 4063 
L 4725 4663 
Q 4725 4744 4750 4800 
Q 4788 4863 4863 4875 
Q 4925 4881 4944 4919 
Q 4950 4956 4913 4994 
Q 4738 5131 4556 5250 
Q 4513 5294 4469 5244 
L 4356 5069 
Q 4338 5044 4300 5044 
L 1963 5044 
Q 1850 5125 1769 5206 
Q 1713 5263 1688 5244 
Q 1663 5238 1663 5181 
Q 1669 5063 1675 4900 
L 1675 3563 
Q 1669 3406 1656 3244 
Q 1650 3181 1744 3219 
Q 1881 3275 1944 3300 
Q 1969 3306 1975 3356 
L 1975 3625 
L 4425 3625 
z
M 1975 4850 
L 4425 4850 
L 4425 3819 
L 1975 3819 
L 1975 4850 
z
M 4313 -244 
Q 4744 250 4856 1275 
Q 4881 1656 5088 1756 
Q 5094 1763 5125 1775 
Q 5188 1813 5150 1850 
Q 5013 2006 4813 2150 
Q 4769 2213 4713 2150 
L 4525 1938 
Q 4500 1919 4444 1919 
L 2131 1919 
L 2413 2750 
L 5088 2750 
L 5869 2750 
Q 5950 2756 5963 2806 
Q 5969 2900 5525 3294 
Q 5469 3350 5425 3294 
L 5263 3063 
Q 5163 2950 5075 2944 
L 969 2944 
Q 681 2944 444 3000 
Q 400 3025 375 3006 
Q 350 2981 400 2938 
Q 494 2856 525 2744 
Q 531 2688 588 2706 
Q 781 2744 1044 2750 
L 2125 2750 
L 1994 2325 
Q 1900 2038 1688 1963 
Q 1594 1944 1738 1769 
Q 1794 1694 1844 1625 
Q 1888 1544 1944 1594 
L 2075 1725 
L 4575 1725 
Q 4569 1181 4363 550 
Q 4244 194 4125 75 
Q 4044 -19 3206 75 
Q 3106 94 3094 25 
Q 3088 -56 3175 -63 
Q 3706 -156 3781 -256 
Q 3838 -319 3844 -425 
Q 3844 -506 3881 -513 
Q 3906 -519 3969 -475 
Q 4181 -363 4313 -244 
z
" transform="scale(0.015625)"/>
      </defs>
      <use xlink:href="#BousungEG-Light-GB-610f"/>
      <use xlink:href="#BousungEG-Light-GB-56fe" x="100"/>
      <use xlink:href="#BousungEG-Light-GB-7f16" x="200"/>
      <use xlink:href="#BousungEG-Light-GB-53f7" x="300"/>
     </g>
    </g>
   </g>
   <g id="matplotlib.axis_2">
    <g id="ytick_1">
     <g id="line2d_16">
      <path d="M 35.838438 205.587891 
L 511.443438 205.587891 
" clip-path="url(#p50ac2f88b1)" style="fill: none; stroke-dasharray: 2.22,0.96; stroke-dashoffset: 0; stroke: #b0b0b0; stroke-opacity: 0.6; stroke-width: 0.6"/>
     </g>
     <g id="line2d_17">
      <defs>
       <path id="ma72fe8b8a0" d="M 0 0 
L 3.5 0 
" style="stroke: #000000; stroke-width: 0.8"/>
      </defs>
      <g>
       <use xlink:href="#ma72fe8b8a0" x="35.838438" y="205.587891" style="stroke: #000000; stroke-width: 0.8"/>
      </g>
     </g>
     <g id="text_17">
      <!-- 0 -->
      <g transform="translate(29.338438 207.650391) scale(0.06 -0.06)">
       <use xlink:href="#BousungEG-Light-GB-30"/>
      </g>
     </g>
    </g>
    <g id="ytick_2">
     <g id="line2d_18">
      <path d="M 35.838438 164.315961 
L 511.443438 164.315961 
" clip-path="url(#p50ac2f88b1)" style="fill: none; stroke-dasharray: 2.22,0.96; stroke-dashoffset: 0; stroke: #b0b0b0; stroke-opacity: 0.6; stroke-width: 0.6"/>
     </g>
     <g id="line2d_19">
      <g>
       <use xlink:href="#ma72fe8b8a0" x="35.838438" y="164.315961" style="stroke: #000000; stroke-width: 0.8"/>
      </g>
     </g>
     <g id="text_18">
      <!-- 1 000 -->
      <g transform="translate(17.338438 166.378461) scale(0.06 -0.06)">
       <defs>
        <path id="BousungEG-Light-GB-20" transform="scale(0.015625)"/>
       </defs>
       <use xlink:href="#BousungEG-Light-GB-31"/>
       <use xlink:href="#BousungEG-Light-GB-20" x="50"/>
       <use xlink:href="#BousungEG-Light-GB-30" x="100"/>
       <use xlink:href="#BousungEG-Light-GB-30" x="150"/>
       <use xlink:href="#BousungEG-Light-GB-30" x="200"/>
      </g>
     </g>
    </g>
    <g id="ytick_3">
     <g id="line2d_20">
      <path d="M 35.838438 123.044032 
L 511.443438 123.044032 
" clip-path="url(#p50ac2f88b1)" style="fill: none; stroke-dasharray: 2.22,0.96; stroke-dashoffset: 0; stroke: #b0b0b0; stroke-opacity: 0.6; stroke-width: 0.6"/>
     </g>
     <g id="line2d_21">
      <g>
       <use xlink:href="#ma72fe8b8a0" x="35.838438" y="123.044032" style="stroke: #000000; stroke-width: 0.8"/>
      </g>
     </g>
     <g id="text_19">
      <!-- 2 000 -->
      <g transform="translate(17.338438 125.106532) scale(0.06 -0.06)">
       <use xlink:href="#BousungEG-Light-GB-32"/>
       <use xlink:href="#BousungEG-Light-GB-20" x="50"/>
       <use xlink:href="#BousungEG-Light-GB-30" x="100"/>
       <use xlink:href="#BousungEG-Light-GB-30" x="150"/>
       <use xlink:href="#BousungEG-Light-GB-30" x="200"/>
      </g>
     </g>
    </g>
    <g id="ytick_4">
     <g id="line2d_22">
      <path d="M 35.838438 81.772103 
L 511.443438 81.772103 
" clip-path="url(#p50ac2f88b1)" style="fill: none; stroke-dasharray: 2.22,0.96; stroke-dashoffset: 0; stroke: #b0b0b0; stroke-opacity: 0.6; stroke-width: 0.6"/>
     </g>
     <g id="line2d_23">
      <g>
       <use xlink:href="#ma72fe8b8a0" x="35.838438" y="81.772103" style="stroke: #000000; stroke-width: 0.8"/>
      </g>
     </g>
     <g id="text_20">
      <!-- 3 000 -->
      <g transform="translate(17.338438 83.834603) scale(0.06 -0.06)">
       <use xlink:href="#BousungEG-Light-GB-33"/>
       <use xlink:href="#BousungEG-Light-GB-20" x="50"/>
       <use xlink:href="#BousungEG-Light-GB-30" x="100"/>
       <use xlink:href="#BousungEG-Light-GB-30" x="150"/>
       <use xlink:href="#BousungEG-Light-GB-30" x="200"/>
      </g>
     </g>
    </g>
    <g id="ytick_5">
     <g id="line2d_24">
      <path d="M 35.838438 40.500173 
L 511.443438 40.500173 
" clip-path="url(#p50ac2f88b1)" style="fill: none; stroke-dasharray: 2.22,0.96; stroke-dashoffset: 0; stroke: #b0b0b0; stroke-opacity: 0.6; stroke-width: 0.6"/>
     </g>
     <g id="line2d_25">
      <g>
       <use xlink:href="#ma72fe8b8a0" x="35.838438" y="40.500173" style="stroke: #000000; stroke-width: 0.8"/>
      </g>
     </g>
     <g id="text_21">
      <!-- 4 000 -->
      <g transform="translate(17.338438 42.562673) scale(0.06 -0.06)">
       <use xlink:href="#BousungEG-Light-GB-34"/>
       <use xlink:href="#BousungEG-Light-GB-20" x="50"/>
       <use xlink:href="#BousungEG-Light-GB-30" x="100"/>
       <use xlink:href="#BousungEG-Light-GB-30" x="150"/>
       <use xlink:href="#BousungEG-Light-GB-30" x="200"/>
      </g>
     </g>
    </g>
    <g id="text_22">
     <!-- Token消耗数量 /个 -->
     <g transform="translate(12.74125 139.875391) rotate(-90) scale(0.065 -0.065)">
      <defs>
       <path id="BousungEG-Light-GB-54" d="M 1706 950 
L 1706 4200 
L 2175 4200 
Q 2594 4200 2963 3519 
L 3038 3544 
L 2775 4338 
L 425 4338 
L 169 3544 
L 238 3519 
Q 619 4200 1038 4200 
L 1413 4200 
L 1413 950 
Q 1413 588 688 581 
L 688 475 
L 2419 475 
L 2419 581 
Q 1706 581 1706 950 
z
" transform="scale(0.015625)"/>
       <path id="BousungEG-Light-GB-6f" d="M 681 2694 
Q 319 2275 313 1688 
Q 313 1163 694 769 
Q 1038 413 1619 413 
Q 2169 413 2519 781 
Q 2881 1163 2888 1688 
Q 2888 2294 2588 2644 
Q 2225 3094 1619 3094 
Q 1031 3094 681 2694 
z
M 931 2613 
Q 1238 2938 1619 2938 
Q 1994 2938 2281 2600 
Q 2563 2281 2563 1688 
Q 2563 1156 2263 850 
Q 1975 569 1619 569 
Q 1238 569 956 844 
Q 638 1163 638 1688 
Q 638 2256 931 2613 
z
" transform="scale(0.015625)"/>
       <path id="BousungEG-Light-GB-6b" d="M 931 919 
L 931 4400 
L 856 4400 
L 81 4063 
L 81 3956 
Q 381 3956 500 3881 
Q 600 3819 606 3675 
L 606 919 
Q 606 763 488 675 
Q 356 581 106 581 
L 106 481 
L 1419 481 
L 1419 581 
Q 1156 581 1038 688 
Q 938 769 931 919 
z
M 1275 2044 
L 2200 2813 
Q 2369 2950 2681 2950 
L 2681 3056 
L 1863 3056 
L 1863 2950 
Q 2050 2956 2081 2925 
Q 2106 2900 2025 2813 
L 1138 2075 
L 1138 2075 
L 950 1963 
L 975 1938 
L 975 1931 
L 975 1931 
L 2169 813 
Q 2281 713 2256 650 
Q 2231 588 1975 581 
L 1975 475 
L 3125 475 
L 3125 581 
Q 2863 581 2613 813 
L 1275 2044 
z
" transform="scale(0.015625)"/>
       <path id="BousungEG-Light-GB-65" d="M 1625 419 
Q 2394 419 2875 1244 
L 2731 1294 
Q 2506 988 2275 838 
Q 2025 688 1750 694 
Q 1244 694 950 975 
Q 663 1256 656 1719 
Q 656 1781 656 1831 
L 2756 1831 
L 2756 1975 
L 2756 1975 
Q 2719 2450 2513 2694 
Q 2225 3094 1638 3094 
Q 994 3094 669 2700 
Q 331 2288 331 1719 
Q 331 1169 663 819 
Q 1025 419 1625 419 
z
M 1638 2919 
Q 2038 2919 2231 2681 
Q 2400 2456 2425 1975 
L 669 1975 
Q 713 2331 900 2569 
Q 1150 2913 1638 2919 
z
" transform="scale(0.015625)"/>
       <path id="BousungEG-Light-GB-6e" d="M 2638 894 
L 2638 2425 
Q 2638 3088 1838 3094 
Q 1481 3094 894 2544 
L 894 3094 
L 825 3094 
L 200 2756 
L 200 2650 
Q 563 2650 569 2381 
L 569 869 
Q 569 581 200 581 
L 200 475 
L 1263 475 
L 1263 581 
Q 900 581 894 869 
L 894 2375 
Q 1463 2813 1838 2813 
Q 2313 2813 2313 2425 
L 2313 894 
Q 2313 588 1944 581 
L 1944 475 
L 3006 475 
L 3006 581 
Q 2644 581 2638 894 
z
" transform="scale(0.015625)"/>
       <path id="BousungEG-Light-GB-6d88" d="M 819 5150 
Q 1294 4738 1463 4231 
Q 1488 4113 1550 4113 
Q 1625 4119 1681 4269 
Q 1763 4463 1731 4581 
Q 1669 4869 913 5225 
Q 831 5263 806 5225 
Q 781 5188 819 5150 
z
M 294 3725 
Q 731 3363 888 2875 
Q 913 2756 975 2763 
Q 1050 2769 1106 2925 
Q 1181 3113 1150 3231 
Q 1088 3500 388 3800 
Q 306 3844 281 3800 
Q 256 3763 294 3725 
z
M 2081 4000 
Q 1513 2700 1225 1956 
Q 1088 1594 994 1563 
Q 913 1538 594 1613 
Q 494 1619 488 1525 
Q 488 1425 556 1425 
Q 931 1381 963 938 
Q 963 488 850 75 
Q 788 -100 869 -225 
Q 950 -356 1094 -381 
Q 1225 -406 1281 -350 
Q 1344 -269 1325 -81 
Q 1169 1156 1738 2656 
Q 2000 3406 2206 3956 
Q 2231 4031 2175 4056 
Q 2113 4081 2081 4000 
z
M 2300 4875 
Q 2900 4425 3113 3894 
Q 3150 3775 3213 3781 
Q 3275 3788 3331 3950 
Q 3394 4144 3363 4256 
Q 3269 4594 2381 4956 
Q 2306 4994 2281 4950 
Q 2256 4913 2300 4875 
z
M 5288 4963 
Q 5019 4325 4588 3844 
Q 4506 3763 4556 3706 
Q 4619 3644 4688 3713 
Q 5138 4106 5363 4388 
Q 5550 4631 5725 4588 
Q 5763 4581 5781 4606 
Q 5806 4631 5731 4700 
Q 5563 4850 5394 4981 
Q 5350 5006 5325 5006 
Q 5300 5000 5288 4963 
z
M 5175 1275 
L 5175 106 
Q 5175 -25 5131 -50 
Q 5094 -69 4406 -38 
Q 4325 -31 4319 -88 
Q 4313 -150 4388 -163 
Q 4675 -188 4819 -294 
Q 4956 -388 5006 -519 
Q 5025 -575 5081 -550 
Q 5250 -488 5363 -331 
Q 5475 -175 5475 38 
L 5475 3088 
Q 5475 3131 5494 3169 
Q 5513 3194 5663 3256 
Q 5763 3294 5719 3344 
Q 5569 3500 5375 3656 
Q 5350 3681 5325 3681 
Q 5300 3681 5288 3656 
L 5131 3450 
Q 5125 3444 5069 3444 
L 4175 3444 
L 4175 4863 
Q 4175 4925 4219 5006 
Q 4244 5069 4338 5119 
Q 4438 5163 4350 5219 
Q 4238 5275 3906 5381 
Q 3844 5400 3850 5300 
Q 3869 5106 3875 4863 
L 3875 3444 
L 2913 3444 
Q 2669 3638 2663 3638 
Q 2644 3631 2656 3569 
Q 2694 3281 2700 3081 
L 2700 831 
Q 2681 169 2656 -456 
Q 2650 -575 2688 -581 
Q 2713 -581 2763 -556 
Q 2994 -400 3000 -306 
Q 2994 163 3000 831 
L 3000 1275 
L 5175 1275 
z
M 3000 2275 
L 5175 2275 
L 5175 1469 
L 3000 1469 
L 3000 2275 
z
M 3000 3250 
L 5175 3250 
L 5175 2469 
L 3000 2469 
L 3000 3250 
z
" transform="scale(0.015625)"/>
       <path id="BousungEG-Light-GB-8017" d="M 5469 56 
L 4344 56 
Q 4250 56 4238 81 
Q 4231 106 4225 181 
L 4225 1756 
L 5988 2144 
Q 6106 2169 6113 2219 
Q 6119 2263 6075 2306 
Q 5869 2481 5663 2625 
Q 5581 2688 5538 2588 
L 5381 2256 
Q 5356 2219 5281 2206 
L 4225 1975 
L 4225 3075 
L 5663 3394 
Q 5781 3419 5788 3469 
Q 5794 3513 5750 3556 
Q 5544 3731 5338 3875 
Q 5256 3938 5213 3838 
L 5056 3506 
Q 5031 3469 4956 3456 
L 4225 3300 
L 4225 4531 
Q 5388 5019 5625 5013 
Q 5706 5006 5725 5031 
Q 5731 5069 5681 5113 
Q 5488 5244 5331 5413 
Q 5306 5456 5231 5400 
Q 4494 4838 2869 4200 
Q 2794 4181 2813 4119 
Q 2831 4056 2925 4088 
Q 3400 4225 3925 4413 
L 3925 3231 
L 3319 3106 
Q 3131 3069 3019 3069 
Q 2975 3075 2963 3050 
Q 2956 3013 3019 2981 
Q 3100 2938 3156 2844 
Q 3200 2769 3238 2806 
Q 3319 2869 3481 2913 
L 3925 3006 
L 3925 1913 
L 3250 1769 
Q 3038 1725 2894 1719 
Q 2850 1725 2838 1700 
Q 2831 1663 2894 1631 
Q 2975 1588 3031 1494 
Q 3075 1419 3113 1456 
Q 3225 1531 3413 1581 
L 3925 1688 
L 3925 100 
Q 3925 -56 3988 -131 
Q 4044 -206 4313 -206 
L 5600 -206 
Q 6031 -188 6175 56 
Q 6200 94 6163 119 
Q 6063 181 6019 319 
Q 5975 494 6025 1050 
Q 6031 1144 5950 1150 
Q 5869 1156 5869 1069 
Q 5794 206 5619 94 
Q 5575 69 5469 56 
z
M 1500 1894 
L 1500 944 
Q 1494 375 1456 -456 
Q 1450 -588 1531 -525 
Q 1706 -413 1794 -356 
Q 1831 -331 1825 -281 
Q 1800 213 1800 944 
L 1800 1994 
Q 2194 1750 2544 1225 
Q 2606 1106 2650 1113 
Q 2688 1119 2763 1225 
Q 2838 1325 2806 1469 
Q 2750 1756 1819 2138 
Q 1813 2144 1800 2144 
L 1800 2475 
L 2300 2475 
L 2875 2475 
Q 2956 2481 2988 2519 
Q 3031 2581 2963 2669 
Q 2850 2806 2688 2969 
Q 2644 3013 2600 2969 
L 2375 2713 
Q 2338 2669 2300 2669 
L 1800 2669 
L 1800 3350 
L 2125 3350 
L 2700 3350 
Q 2781 3356 2813 3394 
Q 2856 3456 2788 3544 
Q 2675 3681 2513 3844 
Q 2469 3888 2425 3844 
L 2200 3588 
Q 2163 3544 2125 3544 
L 1800 3544 
L 1800 4325 
L 2250 4325 
L 2825 4325 
Q 2906 4331 2938 4369 
Q 2981 4431 2913 4519 
Q 2800 4656 2638 4819 
Q 2594 4863 2550 4819 
L 2325 4563 
Q 2288 4519 2250 4519 
L 1800 4519 
Q 1800 4900 1844 5013 
Q 1869 5075 1969 5125 
Q 2069 5181 1981 5225 
Q 1869 5288 1531 5394 
Q 1456 5419 1469 5313 
Q 1488 5025 1500 4519 
L 894 4519 
Q 606 4519 369 4569 
Q 325 4594 300 4575 
Q 281 4550 325 4506 
Q 419 4431 444 4319 
Q 463 4263 513 4281 
Q 706 4319 969 4325 
L 1500 4325 
L 1500 3544 
L 1169 3544 
Q 881 3544 644 3594 
Q 600 3619 575 3600 
Q 556 3575 600 3531 
Q 694 3456 719 3344 
Q 738 3288 788 3306 
Q 981 3344 1244 3350 
L 1500 3350 
L 1500 2669 
L 844 2669 
Q 556 2669 319 2719 
Q 275 2744 250 2725 
Q 231 2700 275 2656 
Q 369 2581 394 2469 
Q 413 2413 463 2431 
Q 656 2469 919 2475 
L 1338 2475 
Q 1013 1456 300 375 
Q 238 300 281 263 
Q 325 219 381 288 
Q 1169 1319 1450 2063 
Q 1469 2194 1506 2306 
Q 1513 2331 1550 2325 
Q 1575 2319 1569 2288 
Q 1544 2113 1500 1894 
z
" transform="scale(0.015625)"/>
       <path id="BousungEG-Light-GB-6570" d="M 5169 1619 
Q 5419 2375 5481 3700 
L 6006 3700 
Q 6100 3706 6119 3750 
Q 6138 3806 6069 3900 
Q 5950 4056 5788 4231 
Q 5744 4275 5688 4225 
L 5469 3969 
Q 5406 3894 5325 3894 
L 4019 3894 
Q 4156 4256 4269 4588 
Q 4369 4944 4425 5013 
Q 4481 5075 4538 5075 
Q 4594 5075 4594 5113 
Q 4594 5150 4513 5188 
Q 4413 5244 4163 5350 
Q 4044 5394 4050 5288 
Q 4075 5006 3831 4100 
Q 3581 3181 3206 2525 
Q 3163 2450 3213 2419 
Q 3256 2381 3313 2456 
Q 3594 2931 3781 3331 
Q 4006 1663 4456 888 
Q 3775 44 2631 -381 
Q 2531 -406 2550 -488 
Q 2575 -588 2688 -550 
Q 3850 -138 4600 650 
Q 4925 156 5575 -375 
Q 5619 -419 5650 -394 
Q 5731 -300 5875 -250 
Q 6006 -206 6106 -225 
Q 6181 -244 6200 -194 
Q 6219 -138 6175 -119 
Q 6131 -94 6088 -75 
Q 5300 288 4825 944 
Q 5038 1269 5169 1619 
z
M 4825 1513 
Q 4763 1344 4663 1181 
Q 4231 2044 4038 2913 
Q 3963 3250 3913 3569 
Q 3906 3594 3900 3619 
Q 3919 3663 3938 3700 
L 5113 3700 
Q 5131 2288 4825 1513 
z
M 644 5075 
Q 869 4844 975 4388 
Q 1000 4250 1044 4244 
Q 1088 4244 1188 4319 
Q 1288 4394 1300 4544 
Q 1306 4619 1200 4750 
Q 1044 4938 750 5156 
Q 675 5219 638 5169 
Q 600 5125 644 5075 
z
M 2681 5206 
Q 2581 4713 2388 4331 
Q 2325 4250 2388 4200 
Q 2450 4156 2500 4231 
Q 2750 4538 2875 4744 
Q 2969 4950 3144 4938 
Q 3181 4938 3194 4969 
Q 3200 4994 3131 5044 
Q 2756 5275 2706 5256 
Q 2688 5250 2681 5206 
z
M 1669 3994 
L 819 3994 
Q 531 3994 294 4044 
Q 250 4069 225 4050 
Q 206 4025 250 3981 
Q 344 3906 369 3794 
Q 388 3738 438 3756 
Q 631 3794 894 3800 
L 1425 3800 
Q 1044 3163 250 2613 
Q 175 2569 225 2488 
Q 250 2444 350 2488 
Q 1350 3075 1663 3688 
Q 1681 3744 1706 3788 
Q 1713 3813 1750 3800 
Q 1775 3794 1763 3763 
Q 1719 3613 1656 3463 
Q 1638 3100 1631 2619 
Q 1625 2488 1706 2550 
Q 1881 2663 1969 2719 
Q 2006 2744 2000 2794 
Q 1981 3075 1975 3413 
Q 2388 3238 2794 2731 
Q 2875 2619 2913 2631 
Q 2950 2638 3013 2750 
Q 3075 2850 3031 3000 
Q 2956 3263 1988 3556 
Q 1988 3556 1975 3556 
Q 1975 3675 1975 3800 
L 2775 3800 
L 3350 3800 
Q 3431 3806 3463 3844 
Q 3506 3906 3438 3994 
Q 3325 4131 3163 4294 
Q 3119 4338 3075 4294 
L 2850 4038 
Q 2813 3994 2775 3994 
L 1975 3994 
Q 1975 4013 1975 4019 
L 1975 4488 
Q 1975 4869 2019 4988 
Q 2044 5050 2144 5100 
Q 2244 5156 2156 5200 
Q 2044 5263 1706 5369 
Q 1631 5394 1644 5288 
Q 1669 4988 1675 4488 
L 1675 4019 
Q 1669 4013 1669 3994 
z
M 831 869 
Q 1563 731 1925 525 
Q 1394 -25 475 -344 
Q 356 -363 363 -450 
Q 369 -550 506 -525 
Q 1575 -200 2181 400 
Q 2500 288 2781 -13 
Q 2938 -181 3025 -125 
Q 3100 -69 3094 94 
Q 3088 281 2969 381 
Q 2906 444 2488 600 
Q 2431 625 2381 638 
Q 2613 944 2781 1356 
Q 2894 1656 3113 1706 
Q 3194 1731 3163 1781 
Q 2788 2175 2750 2175 
Q 2713 2175 2688 2125 
L 2519 1913 
Q 2494 1894 2413 1894 
L 1675 1894 
Q 1675 1900 1681 1900 
Q 1819 2206 1944 2250 
Q 2006 2269 2013 2300 
Q 2013 2325 1956 2356 
Q 1763 2456 1606 2506 
Q 1563 2525 1550 2488 
Q 1450 2163 1338 1894 
L 1175 1894 
L 819 1894 
Q 531 1894 294 1950 
Q 250 1975 225 1956 
Q 200 1931 250 1888 
Q 344 1806 375 1694 
Q 381 1638 438 1656 
Q 631 1694 894 1700 
L 1175 1700 
L 1250 1700 
Q 1063 1300 819 1000 
Q 763 938 775 900 
Q 775 875 831 869 
z
M 2544 1700 
Q 2369 1113 2088 731 
Q 1669 869 1175 963 
Q 1406 1344 1588 1700 
L 2544 1700 
z
" transform="scale(0.015625)"/>
       <path id="BousungEG-Light-GB-91cf" d="M 4600 3725 
L 4600 3463 
Q 4600 3400 4631 3394 
Q 4675 3394 4894 3519 
Q 4950 3544 4938 3619 
Q 4900 3963 4900 4163 
L 4900 4788 
Q 4900 4869 4925 4925 
Q 4963 4988 5038 5000 
Q 5100 5006 5119 5044 
Q 5125 5081 5088 5119 
Q 4913 5256 4731 5375 
Q 4688 5419 4644 5369 
L 4531 5194 
Q 4513 5169 4475 5169 
L 1763 5169 
Q 1650 5250 1569 5331 
Q 1513 5388 1488 5369 
Q 1463 5363 1463 5306 
Q 1469 5188 1475 5025 
L 1475 3738 
Q 1469 3581 1456 3419 
Q 1450 3356 1544 3394 
Q 1681 3450 1744 3475 
Q 1769 3481 1775 3531 
L 1775 3725 
L 4600 3725 
z
M 1775 4325 
L 4600 4325 
L 4600 3919 
L 1775 3919 
L 1775 4325 
z
M 1775 4975 
L 4600 4975 
L 4600 4519 
L 1775 4519 
L 1775 4975 
z
M 5250 3219 
L 944 3219 
Q 656 3219 419 3269 
Q 375 3294 350 3275 
Q 331 3250 375 3206 
Q 469 3131 494 3019 
Q 513 2963 563 2981 
Q 756 3019 1019 3025 
L 5250 3025 
L 5825 3025 
Q 5906 3031 5938 3069 
Q 5981 3131 5913 3219 
Q 5800 3356 5638 3519 
Q 5594 3563 5550 3519 
L 5325 3263 
Q 5288 3219 5250 3219 
z
M 3025 -231 
L 844 -231 
Q 556 -231 319 -181 
Q 275 -156 250 -175 
Q 231 -200 275 -244 
Q 369 -319 394 -431 
Q 413 -488 463 -469 
Q 656 -431 919 -425 
L 5300 -425 
L 5875 -425 
Q 5956 -419 5988 -381 
Q 6031 -319 5963 -231 
Q 5850 -94 5688 69 
Q 5644 113 5600 69 
L 5375 -188 
Q 5338 -231 5300 -231 
L 3325 -231 
L 3325 225 
L 4900 225 
L 5475 225 
Q 5556 231 5588 269 
Q 5631 331 5563 419 
Q 5450 556 5288 719 
Q 5244 763 5200 719 
L 4975 463 
Q 4938 419 4900 419 
L 3325 419 
L 3325 975 
L 4650 975 
L 4650 713 
Q 4650 650 4681 644 
Q 4725 644 4944 769 
Q 5000 794 4988 869 
Q 4950 1213 4950 1413 
L 4950 2188 
Q 4950 2269 4975 2325 
Q 5013 2388 5088 2400 
Q 5150 2406 5169 2444 
Q 5175 2481 5138 2519 
Q 4963 2656 4781 2775 
Q 4738 2819 4694 2769 
L 4581 2594 
Q 4563 2569 4525 2569 
L 1650 2569 
Q 1569 2631 1494 2706 
Q 1438 2763 1413 2744 
Q 1388 2738 1388 2681 
Q 1394 2563 1400 2400 
L 1400 988 
Q 1394 831 1381 669 
Q 1375 606 1469 644 
Q 1606 700 1669 725 
Q 1694 731 1700 781 
L 1700 975 
L 3025 975 
L 3025 419 
L 1419 419 
Q 1131 419 894 469 
Q 850 494 825 475 
Q 806 450 850 406 
Q 944 331 969 219 
Q 988 163 1038 181 
Q 1231 219 1494 225 
L 3025 225 
L 3025 -231 
z
M 3025 1169 
L 1700 1169 
L 1700 1650 
L 3025 1650 
L 3025 1169 
z
M 3325 1650 
L 4650 1650 
L 4650 1169 
L 3325 1169 
L 3325 1650 
z
M 3025 1844 
L 1700 1844 
L 1700 2375 
L 3025 2375 
L 3025 1844 
z
M 3325 2375 
L 4650 2375 
L 4650 1844 
L 3325 1844 
L 3325 2375 
z
" transform="scale(0.015625)"/>
       <path id="BousungEG-Light-GB-2f" d="M 2819 5225 
L 50 -475 
L 375 -475 
L 3144 5225 
L 2819 5225 
z
" transform="scale(0.015625)"/>
       <path id="BousungEG-Light-GB-4e2a" d="M 2994 3338 
Q 3019 3038 3025 2538 
L 3025 994 
Q 3019 425 2981 -406 
Q 2975 -538 3056 -475 
Q 3231 -363 3319 -306 
Q 3356 -281 3350 -231 
Q 3325 263 3325 994 
L 3325 2538 
Q 3325 2919 3369 3038 
Q 3394 3100 3494 3150 
Q 3594 3206 3506 3250 
Q 3394 3313 3056 3419 
Q 2981 3444 2994 3338 
z
M 3419 4950 
Q 3425 4956 3450 4950 
Q 3544 4944 3563 4981 
Q 3581 5006 3531 5050 
Q 3356 5188 3113 5338 
Q 3069 5363 3038 5300 
Q 2569 4413 1988 3769 
Q 1325 3056 375 2450 
Q 319 2413 344 2363 
Q 369 2319 444 2356 
Q 1781 3069 3069 4638 
Q 3225 4850 3300 4906 
Q 3881 3569 5488 2488 
Q 5563 2431 5588 2469 
Q 5669 2606 5806 2663 
Q 5925 2706 6025 2700 
Q 6106 2694 6113 2744 
Q 6119 2788 6075 2794 
Q 4688 3094 3738 4431 
Q 3563 4675 3419 4950 
z
" transform="scale(0.015625)"/>
      </defs>
      <use xlink:href="#BousungEG-Light-GB-54"/>
      <use xlink:href="#BousungEG-Light-GB-6f" x="50"/>
      <use xlink:href="#BousungEG-Light-GB-6b" x="100"/>
      <use xlink:href="#BousungEG-Light-GB-65" x="150"/>
      <use xlink:href="#BousungEG-Light-GB-6e" x="200"/>
      <use xlink:href="#BousungEG-Light-GB-6d88" x="250"/>
      <use xlink:href="#BousungEG-Light-GB-8017" x="350"/>
      <use xlink:href="#BousungEG-Light-GB-6570" x="450"/>
      <use xlink:href="#BousungEG-Light-GB-91cf" x="550"/>
      <use xlink:href="#BousungEG-Light-GB-20" x="650"/>
      <use xlink:href="#BousungEG-Light-GB-2f" x="700"/>
      <use xlink:href="#BousungEG-Light-GB-4e2a" x="750"/>
     </g>
    </g>
   </g>
   <g id="patch_33">
    <path d="M 35.838438 205.587891 
L 35.838438 18.912891 
" style="fill: none; stroke: #000000; stroke-width: 0.8; stroke-linejoin: miter; stroke-linecap: square"/>
   </g>
   <g id="patch_34">
    <path d="M 511.443438 205.587891 
L 511.443438 18.912891 
" style="fill: none; stroke: #000000; stroke-width: 0.8; stroke-linejoin: miter; stroke-linecap: square"/>
   </g>
   <g id="patch_35">
    <path d="M 35.838438 205.587891 
L 511.443437 205.587891 
" style="fill: none; stroke: #000000; stroke-width: 0.8; stroke-linejoin: miter; stroke-linecap: square"/>
   </g>
   <g id="patch_36">
    <path d="M 35.838438 18.912891 
L 511.443437 18.912891 
" style="fill: none; stroke: #000000; stroke-width: 0.8; stroke-linejoin: miter; stroke-linecap: square"/>
   </g>
   <g id="text_23">
    <!-- ±26.9 -->
    <g transform="translate(57.892473 73.232018) scale(0.075 -0.075)">
     <defs>
      <path id="BousungEG-Light-GB-b1" d="M 3294 3050 
L 5244 3050 
L 5244 3319 
L 3294 3319 
L 3294 4969 
L 3025 4969 
L 3025 3319 
L 1156 3319 
L 1156 3050 
L 3025 3050 
L 3025 1250 
L 3294 1250 
L 3294 3050 
z
M 1156 781 
L 1156 513 
L 5244 513 
L 5244 781 
L 1156 781 
z
" transform="scale(0.015625)"/>
      <path id="BousungEG-Light-GB-2e" d="M 1606 1163 
Q 1438 1163 1325 1050 
Q 1225 950 1219 769 
Q 1219 600 1325 494 
Q 1444 375 1606 369 
Q 1763 369 1881 481 
Q 1994 594 1994 769 
Q 1994 944 1888 1050 
Q 1775 1163 1606 1163 
z
" transform="scale(0.015625)"/>
     </defs>
     <use xlink:href="#BousungEG-Light-GB-b1"/>
     <use xlink:href="#BousungEG-Light-GB-32" x="100"/>
     <use xlink:href="#BousungEG-Light-GB-36" x="150"/>
     <use xlink:href="#BousungEG-Light-GB-2e" x="200"/>
     <use xlink:href="#BousungEG-Light-GB-39" x="250"/>
    </g>
   </g>
   <g id="text_24">
    <!-- ±0.0 -->
    <g transform="translate(88.981539 66.545965) scale(0.075 -0.075)">
     <use xlink:href="#BousungEG-Light-GB-b1"/>
     <use xlink:href="#BousungEG-Light-GB-30" x="100"/>
     <use xlink:href="#BousungEG-Light-GB-2e" x="150"/>
     <use xlink:href="#BousungEG-Light-GB-30" x="200"/>
    </g>
   </g>
   <g id="text_25">
    <!-- ±0.0 -->
    <g transform="translate(118.195606 64.73) scale(0.075 -0.075)">
     <use xlink:href="#BousungEG-Light-GB-b1"/>
     <use xlink:href="#BousungEG-Light-GB-30" x="100"/>
     <use xlink:href="#BousungEG-Light-GB-2e" x="150"/>
     <use xlink:href="#BousungEG-Light-GB-30" x="200"/>
    </g>
   </g>
   <g id="text_26">
    <!-- ±6.8 -->
    <g transform="translate(147.409672 57.039664) scale(0.075 -0.075)">
     <use xlink:href="#BousungEG-Light-GB-b1"/>
     <use xlink:href="#BousungEG-Light-GB-36" x="100"/>
     <use xlink:href="#BousungEG-Light-GB-2e" x="150"/>
     <use xlink:href="#BousungEG-Light-GB-38" x="200"/>
    </g>
   </g>
   <g id="text_27">
    <!-- ±1.9 -->
    <g transform="translate(176.623738 62.886521) scale(0.075 -0.075)">
     <use xlink:href="#BousungEG-Light-GB-b1"/>
     <use xlink:href="#BousungEG-Light-GB-31" x="100"/>
     <use xlink:href="#BousungEG-Light-GB-2e" x="150"/>
     <use xlink:href="#BousungEG-Light-GB-39" x="200"/>
    </g>
   </g>
   <g id="text_28">
    <!-- ±0.0 -->
    <g transform="translate(205.837805 62.088597) scale(0.075 -0.075)">
     <use xlink:href="#BousungEG-Light-GB-b1"/>
     <use xlink:href="#BousungEG-Light-GB-30" x="100"/>
     <use xlink:href="#BousungEG-Light-GB-2e" x="150"/>
     <use xlink:href="#BousungEG-Light-GB-30" x="200"/>
    </g>
   </g>
   <g id="text_29">
    <!-- ±63.2 -->
    <g transform="translate(233.176871 52.128305) scale(0.075 -0.075)">
     <use xlink:href="#BousungEG-Light-GB-b1"/>
     <use xlink:href="#BousungEG-Light-GB-36" x="100"/>
     <use xlink:href="#BousungEG-Light-GB-33" x="150"/>
     <use xlink:href="#BousungEG-Light-GB-2e" x="200"/>
     <use xlink:href="#BousungEG-Light-GB-32" x="250"/>
    </g>
   </g>
   <g id="text_30">
    <!-- ±2.8 -->
    <g transform="translate(264.265938 58.167764) scale(0.075 -0.075)">
     <use xlink:href="#BousungEG-Light-GB-b1"/>
     <use xlink:href="#BousungEG-Light-GB-32" x="100"/>
     <use xlink:href="#BousungEG-Light-GB-2e" x="150"/>
     <use xlink:href="#BousungEG-Light-GB-38" x="200"/>
    </g>
   </g>
   <g id="text_31">
    <!-- ±0.0 -->
    <g transform="translate(293.480004 53.008772) scale(0.075 -0.075)">
     <use xlink:href="#BousungEG-Light-GB-b1"/>
     <use xlink:href="#BousungEG-Light-GB-30" x="100"/>
     <use xlink:href="#BousungEG-Light-GB-2e" x="150"/>
     <use xlink:href="#BousungEG-Light-GB-30" x="200"/>
    </g>
   </g>
   <g id="text_32">
    <!-- ±3.8 -->
    <g transform="translate(322.69407 27.021214) scale(0.075 -0.075)">
     <use xlink:href="#BousungEG-Light-GB-b1"/>
     <use xlink:href="#BousungEG-Light-GB-33" x="100"/>
     <use xlink:href="#BousungEG-Light-GB-2e" x="150"/>
     <use xlink:href="#BousungEG-Light-GB-38" x="200"/>
    </g>
   </g>
   <g id="text_33">
    <!-- ±0.9 -->
    <g transform="translate(351.908137 54.976068) scale(0.075 -0.075)">
     <use xlink:href="#BousungEG-Light-GB-b1"/>
     <use xlink:href="#BousungEG-Light-GB-30" x="100"/>
     <use xlink:href="#BousungEG-Light-GB-2e" x="150"/>
     <use xlink:href="#BousungEG-Light-GB-39" x="200"/>
    </g>
   </g>
   <g id="text_34">
    <!-- ±0.9 -->
    <g transform="translate(381.122203 62.776462) scale(0.075 -0.075)">
     <use xlink:href="#BousungEG-Light-GB-b1"/>
     <use xlink:href="#BousungEG-Light-GB-30" x="100"/>
     <use xlink:href="#BousungEG-Light-GB-2e" x="150"/>
     <use xlink:href="#BousungEG-Light-GB-39" x="200"/>
    </g>
   </g>
   <g id="text_35">
    <!-- ±15.6 -->
    <g transform="translate(408.461269 63.574386) scale(0.075 -0.075)">
     <use xlink:href="#BousungEG-Light-GB-b1"/>
     <use xlink:href="#BousungEG-Light-GB-31" x="100"/>
     <use xlink:href="#BousungEG-Light-GB-35" x="150"/>
     <use xlink:href="#BousungEG-Light-GB-2e" x="200"/>
     <use xlink:href="#BousungEG-Light-GB-36" x="250"/>
    </g>
   </g>
   <g id="text_36">
    <!-- ±0.0 -->
    <g transform="translate(439.550336 37.366711) scale(0.075 -0.075)">
     <use xlink:href="#BousungEG-Light-GB-b1"/>
     <use xlink:href="#BousungEG-Light-GB-30" x="100"/>
     <use xlink:href="#BousungEG-Light-GB-2e" x="150"/>
     <use xlink:href="#BousungEG-Light-GB-30" x="200"/>
    </g>
   </g>
   <g id="text_37">
    <!-- ±0.0 -->
    <g transform="translate(468.764402 40.957369) scale(0.075 -0.075)">
     <use xlink:href="#BousungEG-Light-GB-b1"/>
     <use xlink:href="#BousungEG-Light-GB-30" x="100"/>
     <use xlink:href="#BousungEG-Light-GB-2e" x="150"/>
     <use xlink:href="#BousungEG-Light-GB-30" x="200"/>
    </g>
   </g>
   <g id="text_38">
    <!-- 各意图平均Token消耗（柱顶标注波动） -->
    <g transform="translate(216.765938 12.912891) scale(0.065 -0.065)">
     <defs>
      <path id="BousungEG-Light-GB-5404" d="M 4181 4744 
L 2469 4744 
Q 2588 4994 2694 5056 
Q 2731 5094 2819 5094 
Q 2900 5094 2925 5131 
Q 2944 5156 2888 5194 
Q 2694 5313 2444 5444 
Q 2388 5469 2369 5400 
Q 2088 4663 1700 4119 
Q 1244 3513 569 2950 
Q 513 2913 544 2863 
Q 569 2819 644 2869 
Q 1250 3269 1638 3688 
Q 1925 3994 2288 4494 
Q 2575 3663 2975 3094 
Q 2519 2606 2081 2294 
Q 1475 1863 325 1369 
Q 244 1344 269 1244 
Q 294 1163 450 1231 
Q 1125 1500 1650 1775 
Q 1669 1563 1675 1381 
L 1675 831 
Q 1669 -56 1644 -438 
Q 1638 -556 1688 -563 
Q 1725 -556 1944 -388 
Q 1969 -350 1975 -88 
L 4381 -88 
Q 4375 -281 4363 -438 
Q 4356 -538 4381 -550 
Q 4406 -556 4688 -394 
Q 4750 -356 4750 -275 
Q 4706 344 4700 769 
L 4700 1444 
Q 4700 1506 4750 1563 
Q 4806 1619 4913 1638 
Q 4969 1644 4925 1694 
Q 4906 1700 4894 1719 
Q 5219 1588 5594 1450 
Q 5694 1406 5719 1444 
Q 5800 1656 6094 1663 
Q 6169 1656 6175 1706 
Q 6181 1750 6150 1763 
Q 5794 1763 4944 2056 
Q 3894 2438 3313 3019 
Q 3725 3488 4200 4175 
Q 4406 4475 4488 4513 
Q 4581 4556 4663 4525 
Q 4738 4500 4756 4531 
Q 4775 4556 4725 4600 
Q 4513 4794 4350 4931 
Q 4325 4956 4294 4950 
Q 4288 4950 4181 4744 
z
M 2406 4550 
L 4075 4550 
Q 3681 3931 3100 3244 
Q 2681 3756 2406 4550 
z
M 3413 2600 
Q 3788 2256 4469 1913 
L 4350 1788 
Q 4306 1744 4231 1744 
L 1944 1744 
Q 1863 1806 1800 1856 
Q 2663 2344 3163 2856 
Q 3275 2719 3413 2600 
z
M 1975 831 
L 1975 1381 
L 1975 1550 
L 4400 1550 
L 4400 588 
Q 4394 319 4388 81 
L 1975 81 
Q 1975 494 1975 831 
z
" transform="scale(0.015625)"/>
      <path id="BousungEG-Light-GB-5e73" d="M 1213 4244 
Q 1794 3588 1906 2938 
Q 1913 2819 1975 2806 
Q 2050 2800 2131 2944 
Q 2231 3119 2225 3244 
Q 2225 3656 1313 4306 
Q 1250 4350 1213 4325 
Q 1188 4288 1213 4244 
z
M 4731 4356 
Q 4356 3531 3756 2869 
Q 3675 2788 3731 2731 
Q 3794 2669 3863 2744 
Q 4463 3313 4763 3719 
Q 4938 3988 5206 3994 
Q 5213 4000 5238 4013 
Q 5256 4038 5188 4106 
Q 4794 4413 4769 4406 
Q 4744 4400 4731 4356 
z
M 2950 2519 
L 869 2519 
Q 581 2519 344 2575 
Q 300 2600 275 2581 
Q 250 2556 300 2513 
Q 394 2431 425 2319 
Q 431 2263 488 2281 
Q 681 2319 944 2325 
L 2950 2325 
L 2950 944 
Q 2950 375 2906 -456 
Q 2900 -588 2988 -531 
Q 3269 -344 3275 -288 
Q 3250 206 3250 944 
L 3250 2325 
L 5213 2325 
L 5994 2325 
Q 6075 2331 6088 2381 
Q 6094 2475 5650 2869 
Q 5594 2925 5550 2869 
L 5388 2638 
Q 5288 2525 5200 2519 
L 3250 2519 
L 3250 4650 
L 4763 4650 
L 5544 4650 
Q 5625 4656 5638 4706 
Q 5644 4800 5200 5194 
Q 5144 5250 5100 5194 
L 4938 4963 
Q 4838 4850 4750 4844 
L 1194 4844 
Q 906 4844 669 4900 
Q 625 4925 600 4906 
Q 575 4881 625 4838 
Q 719 4756 750 4644 
Q 756 4588 813 4606 
Q 1006 4644 1269 4650 
L 2950 4650 
L 2950 2519 
z
" transform="scale(0.015625)"/>
      <path id="BousungEG-Light-GB-5747" d="M 1650 1319 
L 1650 3425 
L 2075 3425 
L 2650 3425 
Q 2731 3431 2763 3469 
Q 2806 3531 2738 3619 
Q 2625 3756 2463 3919 
Q 2419 3963 2375 3919 
L 2150 3663 
Q 2113 3619 2075 3619 
L 1650 3619 
L 1650 4788 
Q 1650 4850 1694 4931 
Q 1719 4994 1813 5044 
Q 1913 5088 1825 5144 
Q 1713 5200 1381 5306 
Q 1319 5325 1325 5225 
Q 1344 5031 1350 4788 
L 1350 3619 
L 869 3619 
Q 581 3619 344 3669 
Q 300 3694 275 3675 
Q 256 3650 300 3606 
Q 394 3531 419 3419 
Q 438 3363 488 3381 
Q 681 3419 944 3425 
L 1350 3425 
L 1350 1231 
Q 1306 1225 1275 1213 
Q 750 1056 294 981 
Q 231 975 219 950 
Q 213 931 294 869 
Q 431 756 500 600 
Q 525 544 550 550 
Q 575 556 613 613 
Q 694 731 950 806 
Q 1631 1050 2688 1500 
Q 2781 1538 2769 1606 
Q 2750 1663 2663 1631 
Q 2206 1494 1650 1319 
z
M 5425 -144 
Q 5631 106 5713 863 
Q 5769 1706 5806 3813 
Q 5806 3963 6013 4063 
Q 6056 4081 6025 4125 
Q 5888 4263 5656 4450 
Q 5600 4513 5563 4450 
L 5419 4250 
Q 5394 4225 5325 4219 
L 3556 4219 
Q 3875 4931 3925 4975 
Q 3988 5031 4044 5031 
Q 4100 5025 4106 5063 
Q 4106 5088 4031 5138 
Q 3938 5213 3694 5344 
Q 3594 5400 3581 5294 
Q 3575 5013 3250 4163 
Q 2925 3300 2494 2700 
Q 2438 2638 2488 2594 
Q 2531 2556 2594 2625 
Q 3044 3225 3463 4025 
L 5513 4025 
Q 5488 3275 5463 1950 
Q 5444 825 5350 413 
Q 5288 169 5150 38 
Q 5038 -75 4275 25 
Q 4200 44 4194 -19 
Q 4188 -81 4269 -94 
Q 4669 -169 4781 -250 
Q 4863 -325 4894 -475 
Q 4900 -519 4956 -488 
Q 5225 -375 5425 -144 
z
M 2800 1306 
Q 2738 1300 2725 1281 
Q 2719 1263 2794 1194 
Q 2931 1075 2994 925 
Q 3019 869 3044 875 
Q 3069 881 3106 931 
Q 3188 1050 3450 1119 
Q 4075 1331 5038 1725 
Q 5131 1763 5119 1831 
Q 5100 1888 5013 1856 
Q 3344 1400 2800 1306 
z
M 3588 3219 
Q 4000 2744 4081 2213 
Q 4088 2094 4150 2081 
Q 4225 2075 4306 2219 
Q 4406 2394 4400 2519 
Q 4381 2819 3688 3281 
Q 3625 3325 3588 3300 
Q 3563 3263 3588 3219 
z
" transform="scale(0.015625)"/>
      <path id="BousungEG-Light-GB-ff08" d="M 4956 3781 
Q 5200 4519 5950 5519 
L 5950 5625 
Q 4519 3988 4513 2425 
Q 4513 825 5950 -775 
L 5950 -669 
Q 4556 1169 4825 3131 
Q 4863 3475 4956 3781 
z
" transform="scale(0.015625)"/>
      <path id="BousungEG-Light-GB-67f1" d="M 1375 2563 
L 1375 919 
Q 1369 350 1331 -481 
Q 1325 -613 1406 -550 
Q 1581 -438 1669 -381 
Q 1706 -356 1700 -306 
Q 1675 188 1675 919 
L 1675 2781 
Q 1975 2594 2269 2150 
Q 2331 2031 2375 2038 
Q 2413 2044 2488 2150 
Q 2563 2250 2531 2400 
Q 2475 2631 1675 2938 
L 1675 3700 
L 2000 3700 
L 2575 3700 
Q 2656 3706 2688 3744 
Q 2731 3806 2663 3894 
Q 2550 4031 2388 4194 
Q 2344 4238 2300 4194 
L 2075 3938 
Q 2038 3894 2000 3894 
L 1675 3894 
L 1675 4513 
Q 1675 4894 1719 5013 
Q 1744 5075 1844 5125 
Q 1944 5181 1856 5225 
Q 1744 5288 1406 5394 
Q 1331 5419 1344 5313 
Q 1369 5013 1375 4513 
L 1375 3894 
L 844 3894 
Q 556 3894 319 3944 
Q 275 3969 250 3950 
Q 231 3925 275 3881 
Q 369 3806 394 3694 
Q 413 3638 463 3656 
Q 656 3694 919 3700 
L 1325 3700 
Q 1063 2231 306 1150 
Q 269 1106 319 1050 
Q 363 1006 425 1075 
Q 1175 2150 1369 2900 
Q 1394 3031 1431 3156 
Q 1438 3181 1475 3175 
Q 1500 3169 1494 3138 
Q 1450 2850 1375 2563 
z
M 3713 5294 
Q 4094 4838 4181 4356 
Q 4188 4238 4256 4231 
Q 4319 4225 4406 4369 
Q 4506 4544 4500 4669 
Q 4481 4950 3813 5356 
Q 3750 5413 3713 5375 
Q 3688 5338 3713 5294 
z
M 4075 -131 
L 2694 -131 
Q 2406 -131 2169 -81 
Q 2125 -56 2100 -75 
Q 2081 -100 2125 -144 
Q 2219 -219 2244 -331 
Q 2263 -388 2313 -369 
Q 2506 -331 2769 -325 
L 5500 -325 
L 6075 -325 
Q 6156 -319 6188 -281 
Q 6231 -219 6163 -131 
Q 6050 6 5888 169 
Q 5844 213 5800 169 
L 5575 -88 
Q 5538 -131 5500 -131 
L 4375 -131 
L 4375 1875 
L 5200 1875 
L 5775 1875 
Q 5856 1881 5888 1919 
Q 5931 1981 5863 2069 
Q 5750 2206 5588 2369 
Q 5544 2413 5500 2369 
L 5275 2113 
Q 5238 2069 5200 2069 
L 4375 2069 
L 4375 3800 
L 5300 3800 
L 5875 3800 
Q 5956 3806 5988 3844 
Q 6031 3906 5963 3994 
Q 5850 4131 5688 4294 
Q 5644 4338 5600 4294 
L 5375 4038 
Q 5338 3994 5300 3994 
L 3444 3994 
Q 3156 3994 2919 4044 
Q 2875 4069 2850 4050 
Q 2831 4025 2875 3981 
Q 2969 3906 2994 3794 
Q 3013 3738 3063 3756 
Q 3256 3794 3519 3800 
L 4075 3800 
L 4075 2069 
L 3369 2069 
Q 3081 2069 2844 2119 
Q 2800 2144 2775 2125 
Q 2756 2100 2800 2056 
Q 2894 1981 2919 1869 
Q 2938 1813 2988 1831 
Q 3181 1869 3444 1875 
L 4075 1875 
L 4075 -131 
z
" transform="scale(0.015625)"/>
      <path id="BousungEG-Light-GB-9876" d="M 1650 350 
L 1650 4600 
L 1800 4600 
L 2375 4600 
Q 2456 4606 2488 4644 
Q 2531 4706 2463 4794 
Q 2350 4931 2188 5094 
Q 2144 5138 2100 5094 
L 1875 4838 
Q 1838 4794 1800 4794 
L 819 4794 
Q 531 4794 294 4844 
Q 250 4869 225 4850 
Q 206 4825 250 4781 
Q 344 4706 369 4594 
Q 388 4538 438 4556 
Q 631 4594 894 4600 
L 1350 4600 
L 1350 588 
Q 1344 431 1263 344 
Q 1206 288 538 350 
Q 456 356 438 294 
Q 431 231 500 219 
Q 894 119 1025 31 
Q 1088 -6 1106 -194 
Q 1113 -256 1181 -225 
Q 1425 -163 1544 -31 
Q 1644 88 1650 350 
z
M 5131 3969 
L 4094 3969 
Q 4338 4463 4463 4825 
L 5375 4825 
L 5950 4825 
Q 6031 4831 6063 4869 
Q 6106 4931 6038 5019 
Q 5925 5156 5763 5319 
Q 5719 5363 5675 5319 
L 5450 5063 
Q 5413 5019 5375 5019 
L 3244 5019 
Q 2956 5019 2719 5069 
Q 2675 5094 2650 5075 
Q 2631 5050 2675 5006 
Q 2769 4931 2794 4819 
Q 2813 4763 2863 4781 
Q 3056 4819 3319 4825 
L 4119 4825 
Q 4075 4469 3938 3981 
Q 3931 3975 3931 3969 
L 3188 3969 
Q 2944 4163 2938 4163 
Q 2919 4156 2931 4094 
Q 2969 3806 2975 3606 
L 2975 2181 
Q 2956 1519 2931 894 
Q 2925 775 2963 769 
Q 2988 769 3038 794 
Q 3269 950 3275 1044 
Q 3269 1513 3275 2181 
L 3275 3775 
L 5300 3775 
L 5300 1963 
Q 5294 1300 5263 938 
Q 5256 838 5281 825 
Q 5306 819 5588 981 
Q 5650 1019 5650 1100 
Q 5606 1719 5600 2144 
L 5600 3669 
Q 5600 3731 5650 3788 
Q 5706 3844 5813 3863 
Q 5869 3869 5825 3919 
Q 5688 4038 5494 4181 
Q 5438 4219 5406 4175 
L 5250 4013 
Q 5206 3969 5131 3969 
z
M 4169 850 
Q 4975 550 5744 -344 
Q 5825 -456 5863 -444 
Q 5900 -438 5963 -325 
Q 6025 -225 5988 -75 
Q 5944 100 5581 338 
Q 5075 681 4225 969 
Q 4450 1550 4450 2588 
Q 4450 3100 4594 3181 
Q 4613 3200 4638 3206 
Q 4719 3244 4631 3294 
Q 4519 3356 4181 3463 
Q 4106 3481 4119 3381 
Q 4288 1431 3713 650 
Q 3581 500 3425 369 
Q 2950 -6 2006 -363 
Q 1925 -388 1950 -469 
Q 1975 -531 2094 -488 
Q 3313 -50 3775 356 
Q 4019 569 4169 850 
z
" transform="scale(0.015625)"/>
      <path id="BousungEG-Light-GB-6807" d="M 5050 4894 
L 3494 4894 
Q 3206 4894 2969 4944 
Q 2925 4969 2900 4950 
Q 2881 4925 2925 4881 
Q 3019 4806 3044 4694 
Q 3063 4638 3113 4656 
Q 3306 4694 3569 4700 
L 5050 4700 
L 5625 4700 
Q 5706 4706 5738 4744 
Q 5781 4806 5713 4894 
Q 5600 5031 5438 5194 
Q 5394 5238 5350 5194 
L 5125 4938 
Q 5088 4894 5050 4894 
z
M 4450 50 
L 4450 3250 
L 5400 3250 
L 5975 3250 
Q 6056 3256 6088 3294 
Q 6131 3356 6063 3444 
Q 5950 3581 5788 3744 
Q 5744 3788 5700 3744 
L 5475 3488 
Q 5438 3444 5400 3444 
L 3019 3444 
Q 2731 3444 2494 3494 
Q 2450 3519 2425 3500 
Q 2406 3475 2450 3431 
Q 2544 3356 2569 3244 
Q 2588 3188 2638 3206 
Q 2831 3244 3094 3250 
L 4150 3250 
L 4150 288 
Q 4144 131 4063 44 
Q 4000 -13 3363 50 
Q 3281 56 3263 -6 
Q 3256 -69 3325 -81 
Q 3706 -181 3831 -269 
Q 3894 -313 3906 -494 
Q 3913 -556 3981 -525 
Q 4225 -463 4344 -331 
Q 4444 -213 4450 50 
z
M 3163 2438 
Q 3144 2194 2813 1475 
Q 2488 744 2075 250 
Q 2019 188 2063 144 
Q 2106 100 2169 169 
Q 2794 844 3281 1769 
Q 3469 2163 3606 2138 
Q 3650 2131 3669 2169 
Q 3675 2194 3600 2250 
Q 3506 2331 3281 2475 
Q 3181 2538 3163 2438 
z
M 4994 2250 
Q 5769 1069 5800 375 
Q 5806 281 5844 263 
Q 5888 244 5944 294 
Q 6006 338 6088 475 
Q 6169 613 6125 819 
Q 6006 1350 5106 2306 
Q 5063 2381 5006 2344 
Q 4963 2300 4994 2250 
z
M 1325 2506 
L 1325 944 
Q 1319 375 1281 -456 
Q 1275 -588 1356 -525 
Q 1531 -413 1619 -356 
Q 1656 -331 1650 -281 
Q 1625 213 1625 944 
L 1625 2844 
Q 1944 2594 2169 2081 
Q 2213 1950 2256 1950 
Q 2300 1956 2388 2044 
Q 2469 2138 2469 2288 
Q 2444 2556 1650 3000 
Q 1644 3006 1625 3013 
L 1625 3825 
L 1875 3825 
L 2450 3825 
Q 2531 3831 2563 3869 
Q 2606 3931 2538 4019 
Q 2425 4156 2263 4319 
Q 2219 4363 2175 4319 
L 1950 4063 
Q 1913 4019 1875 4019 
L 1625 4019 
L 1625 4538 
Q 1625 4919 1669 5038 
Q 1694 5100 1794 5150 
Q 1894 5206 1806 5250 
Q 1694 5313 1356 5419 
Q 1281 5444 1294 5338 
Q 1319 5038 1325 4538 
L 1325 4019 
L 819 4019 
Q 531 4019 294 4069 
Q 250 4094 225 4075 
Q 206 4050 250 4006 
Q 344 3931 369 3819 
Q 388 3763 438 3781 
Q 631 3819 894 3825 
L 1281 3825 
Q 1106 2319 306 1050 
Q 269 1006 313 950 
Q 369 906 425 981 
Q 913 1731 1238 2538 
Q 1313 2894 1363 3231 
Q 1369 3256 1400 3250 
Q 1425 3244 1419 3219 
Q 1381 2875 1325 2506 
z
" transform="scale(0.015625)"/>
      <path id="BousungEG-Light-GB-6ce8" d="M 800 5175 
Q 1306 4781 1488 4294 
Q 1513 4175 1581 4181 
Q 1656 4188 1706 4350 
Q 1769 4538 1738 4656 
Q 1675 4938 881 5256 
Q 806 5294 781 5250 
Q 756 5213 800 5175 
z
M 319 3719 
Q 750 3306 863 2863 
Q 881 2744 944 2744 
Q 1019 2744 1081 2894 
Q 1163 3081 1144 3206 
Q 1069 3488 413 3794 
Q 338 3838 306 3800 
Q 281 3763 319 3719 
z
M 2056 4300 
Q 1431 2719 1119 1838 
Q 963 1400 863 1363 
Q 781 1319 438 1369 
Q 338 1369 331 1275 
Q 338 1175 413 1181 
Q 825 1175 875 694 
Q 875 163 831 -50 
Q 788 -225 881 -350 
Q 981 -469 1125 -481 
Q 1256 -488 1306 -431 
Q 1369 -350 1325 -156 
Q 1081 863 1344 1738 
Q 1344 1781 2188 4263 
Q 2213 4325 2150 4356 
Q 2088 4375 2056 4300 
z
M 3194 5325 
Q 3706 4850 3863 4356 
Q 3888 4238 3950 4238 
Q 4013 4244 4081 4394 
Q 4163 4588 4138 4706 
Q 4075 5013 3288 5400 
Q 3213 5438 3181 5400 
Q 3156 5363 3194 5325 
z
M 5275 -31 
L 4000 -31 
L 4000 1925 
L 4838 1925 
L 5619 1925 
Q 5700 1931 5713 1981 
Q 5719 2075 5275 2469 
Q 5219 2525 5175 2469 
L 5013 2238 
Q 4913 2125 4825 2119 
L 4000 2119 
L 4000 3825 
L 5063 3825 
L 5844 3825 
Q 5925 3831 5938 3881 
Q 5944 3975 5500 4369 
Q 5444 4425 5400 4369 
L 5238 4138 
Q 5138 4025 5050 4019 
L 2769 4019 
Q 2481 4019 2244 4075 
Q 2200 4100 2175 4081 
Q 2150 4056 2200 4013 
Q 2294 3931 2325 3819 
Q 2331 3763 2388 3781 
Q 2581 3819 2844 3825 
L 3700 3825 
L 3700 2119 
L 2869 2119 
Q 2581 2119 2344 2175 
Q 2300 2200 2275 2181 
Q 2250 2156 2300 2113 
Q 2394 2031 2425 1919 
Q 2431 1863 2488 1881 
Q 2681 1919 2944 1925 
L 3700 1925 
L 3700 -31 
L 2119 -31 
Q 1831 -31 1594 25 
Q 1550 50 1525 31 
Q 1500 6 1550 -38 
Q 1644 -119 1675 -231 
Q 1681 -288 1738 -269 
Q 1931 -231 2194 -225 
L 5288 -225 
L 6069 -225 
Q 6150 -219 6163 -169 
Q 6169 -75 5725 319 
Q 5669 375 5625 319 
L 5463 88 
Q 5363 -25 5275 -31 
z
" transform="scale(0.015625)"/>
      <path id="BousungEG-Light-GB-6ce2" d="M 794 5169 
Q 1188 4775 1281 4338 
Q 1306 4219 1369 4219 
Q 1431 4219 1506 4369 
Q 1588 4556 1575 4675 
Q 1500 4938 888 5244 
Q 813 5288 788 5250 
Q 763 5213 794 5169 
z
M 344 3794 
Q 700 3400 781 2994 
Q 800 2875 863 2875 
Q 938 2869 1006 3019 
Q 1100 3206 1075 3325 
Q 1056 3538 438 3869 
Q 363 3913 338 3875 
Q 313 3838 344 3794 
z
M 1981 4375 
Q 1381 2838 1081 1975 
Q 931 1556 838 1506 
Q 763 1463 431 1494 
Q 331 1494 331 1400 
Q 338 1300 419 1306 
Q 781 1300 825 938 
Q 763 338 681 106 
Q 619 -69 700 -200 
Q 781 -319 919 -356 
Q 1050 -381 1106 -325 
Q 1181 -244 1156 -56 
Q 1006 1144 1613 2825 
Q 1894 3694 2113 4338 
Q 2138 4400 2075 4431 
Q 2013 4450 1981 4375 
z
M 4038 794 
Q 3363 38 2194 -388 
Q 2081 -413 2088 -506 
Q 2094 -600 2231 -569 
Q 3494 -138 4200 563 
Q 4613 -25 5600 -494 
Q 5663 -531 5681 -494 
Q 5850 -225 6081 -219 
Q 6156 -219 6163 -163 
Q 6169 -106 6125 -94 
Q 5225 75 4675 544 
Q 4594 606 4406 794 
Q 4838 1338 5100 2069 
Q 5231 2444 5419 2494 
Q 5438 2500 5463 2506 
Q 5544 2531 5513 2581 
Q 5138 2975 5100 2975 
Q 5063 2975 5038 2925 
L 4869 2713 
Q 4844 2694 4763 2694 
L 4175 2694 
L 4175 4025 
L 5369 4025 
Q 5275 3756 5100 3400 
Q 5056 3319 5106 3288 
Q 5163 3263 5213 3331 
Q 5625 3975 5988 4013 
Q 6069 4019 6038 4069 
Q 5663 4463 5569 4469 
Q 5550 4469 5531 4444 
L 5338 4250 
Q 5313 4225 5256 4219 
L 4175 4219 
L 4175 4888 
Q 4175 4950 4219 5031 
Q 4244 5094 4338 5144 
Q 4438 5188 4350 5244 
Q 4238 5300 3906 5406 
Q 3844 5425 3850 5325 
Q 3869 5131 3875 4888 
L 3875 4219 
L 2713 4219 
Q 2575 4300 2488 4388 
Q 2444 4431 2413 4425 
Q 2388 4406 2394 4356 
Q 2450 4106 2456 3869 
L 2456 3438 
Q 2456 1069 1938 281 
Q 1713 -56 1306 -406 
Q 1244 -450 1281 -513 
Q 1325 -575 1406 -525 
Q 2513 269 2663 1606 
Q 2706 2006 2725 2500 
L 3219 2500 
Q 3219 2219 3913 1000 
Q 3969 900 4038 794 
z
M 4894 2500 
Q 4631 1575 4219 1019 
Q 3769 1619 3375 2500 
L 4894 2500 
z
M 2756 3719 
L 2756 4025 
L 3875 4025 
L 3875 2694 
L 2738 2694 
Q 2756 3169 2756 3719 
z
" transform="scale(0.015625)"/>
      <path id="BousungEG-Light-GB-52a8" d="M 2100 4669 
L 1244 4669 
Q 956 4669 719 4719 
Q 675 4744 650 4725 
Q 631 4700 675 4656 
Q 769 4581 794 4469 
Q 813 4413 863 4431 
Q 1056 4469 1319 4475 
L 2100 4475 
L 2675 4475 
Q 2756 4481 2788 4519 
Q 2831 4581 2763 4669 
Q 2650 4806 2488 4969 
Q 2444 5013 2400 4969 
L 2175 4713 
Q 2138 4669 2100 4669 
z
M 2450 3269 
L 819 3269 
Q 531 3269 294 3319 
Q 250 3344 225 3325 
Q 206 3300 250 3256 
Q 344 3181 369 3069 
Q 388 3013 438 3031 
Q 631 3069 894 3075 
L 1369 3075 
Q 1325 2456 825 1188 
Q 806 1163 800 1119 
Q 706 906 675 869 
Q 650 844 563 831 
Q 500 825 550 763 
Q 669 631 744 469 
Q 769 406 813 463 
Q 856 519 1031 581 
Q 1825 919 2656 1131 
Q 2731 938 2800 694 
Q 2825 556 2869 550 
Q 2906 544 3013 619 
Q 3113 681 3131 838 
Q 3156 969 2981 1231 
Q 2750 1606 2250 2050 
Q 2175 2113 2138 2069 
Q 2094 2025 2144 1975 
Q 2350 1769 2600 1263 
Q 2425 1238 1056 931 
Q 956 913 938 931 
Q 931 938 956 988 
Q 1219 1481 1475 2150 
Q 1700 2750 1863 2763 
Q 1925 2769 1931 2800 
Q 1938 2825 1875 2863 
Q 1725 2963 1531 3075 
L 2450 3075 
L 3025 3075 
Q 3106 3081 3138 3119 
Q 3181 3181 3113 3269 
Q 3000 3406 2838 3569 
Q 2794 3613 2750 3569 
L 2525 3313 
Q 2488 3269 2450 3269 
z
M 3869 3719 
Q 3581 3719 3344 3775 
Q 3300 3800 3275 3781 
Q 3250 3756 3300 3713 
Q 3394 3631 3425 3519 
Q 3431 3463 3488 3481 
Q 3681 3519 3944 3525 
L 4106 3525 
Q 4063 2156 3806 1413 
Q 3431 450 2306 -381 
Q 2244 -425 2275 -494 
Q 2319 -556 2419 -488 
Q 3456 225 3850 875 
Q 4188 1438 4313 2256 
Q 4375 2713 4406 3525 
L 4725 3525 
L 5075 3525 
L 5538 3525 
Q 5513 2881 5481 1725 
Q 5456 744 5375 388 
Q 5313 175 5200 63 
Q 5106 -38 4375 25 
Q 4300 44 4288 -19 
Q 4281 -81 4375 -94 
Q 4750 -156 4844 -244 
Q 4925 -306 4950 -450 
Q 4956 -488 5006 -463 
Q 5569 -231 5700 444 
Q 5781 1181 5831 3325 
Q 5831 3419 5856 3456 
Q 5900 3500 6038 3556 
Q 6081 3581 6050 3619 
Q 5913 3769 5681 3950 
Q 5625 4013 5588 3950 
L 5444 3750 
Q 5419 3725 5350 3719 
L 5075 3719 
L 4725 3719 
L 4413 3719 
Q 4438 4919 4469 4981 
Q 4494 5038 4613 5106 
Q 4694 5144 4606 5194 
Q 4494 5256 4156 5363 
Q 4081 5381 4094 5281 
Q 4131 4794 4113 3719 
L 3869 3719 
z
" transform="scale(0.015625)"/>
      <path id="BousungEG-Light-GB-ff09" d="M 456 5519 
Q 1194 4519 1438 3781 
Q 1850 2319 1350 925 
Q 1063 150 456 -669 
L 456 -775 
Q 1881 838 1888 2425 
Q 1888 3981 456 5625 
L 456 5519 
z
" transform="scale(0.015625)"/>
     </defs>
     <use xlink:href="#BousungEG-Light-GB-5404"/>
     <use xlink:href="#BousungEG-Light-GB-610f" x="100"/>
     <use xlink:href="#BousungEG-Light-GB-56fe" x="200"/>
     <use xlink:href="#BousungEG-Light-GB-5e73" x="300"/>
     <use xlink:href="#BousungEG-Light-GB-5747" x="400"/>
     <use xlink:href="#BousungEG-Light-GB-54" x="500"/>
     <use xlink:href="#BousungEG-Light-GB-6f" x="550"/>
     <use xlink:href="#BousungEG-Light-GB-6b" x="600"/>
     <use xlink:href="#BousungEG-Light-GB-65" x="650"/>
     <use xlink:href="#BousungEG-Light-GB-6e" x="700"/>
     <use xlink:href="#BousungEG-Light-GB-6d88" x="750"/>
     <use xlink:href="#BousungEG-Light-GB-8017" x="850"/>
     <use xlink:href="#BousungEG-Light-GB-ff08" x="950"/>
     <use xlink:href="#BousungEG-Light-GB-67f1" x="1050"/>
     <use xlink:href="#BousungEG-Light-GB-9876" x="1150"/>
     <use xlink:href="#BousungEG-Light-GB-6807" x="1250"/>
     <use xlink:href="#BousungEG-Light-GB-6ce8" x="1350"/>
     <use xlink:href="#BousungEG-Light-GB-6ce2" x="1450"/>
     <use xlink:href="#BousungEG-Light-GB-52a8" x="1550"/>
     <use xlink:href="#BousungEG-Light-GB-ff09" x="1650"/>
    </g>
   </g>
   <g id="legend_1">
    <g id="patch_37">
     <path d="M 40.038438 41.712891 
L 149.238438 41.712891 
Q 150.438438 41.712891 150.438438 40.512891 
L 150.438438 23.112891 
Q 150.438438 21.912891 149.238438 21.912891 
L 40.038438 21.912891 
Q 38.838438 21.912891 38.838438 23.112891 
L 38.838438 40.512891 
Q 38.838438 41.712891 40.038438 41.712891 
z
" style="fill: #ffffff; opacity: 0.8; stroke: #cccccc; stroke-linejoin: miter"/>
    </g>
    <g id="patch_38">
     <path d="M 41.238438 29.586328 
L 53.238438 29.586328 
L 53.238438 25.386328 
L 41.238438 25.386328 
z
" style="fill: url(#hcc87ff677d); stroke: #000000; stroke-width: 0.8; stroke-linejoin: miter"/>
    </g>
    <g id="text_39">
     <!-- 意图解析Agent消耗Token（均值） -->
     <g transform="translate(58.038438 29.586328) scale(0.06 -0.06)">
      <defs>
       <path id="BousungEG-Light-GB-89e3" d="M 2450 1375 
L 2450 106 
Q 2450 -25 2406 -50 
Q 2369 -69 1656 -38 
Q 1575 -31 1569 -88 
Q 1563 -150 1638 -163 
Q 1944 -188 2081 -288 
Q 2219 -388 2275 -519 
Q 2300 -575 2356 -550 
Q 2525 -488 2638 -331 
Q 2750 -175 2750 38 
L 2750 3363 
Q 2750 3406 2769 3444 
Q 2788 3469 2938 3531 
Q 3038 3569 2994 3619 
Q 2844 3775 2650 3931 
Q 2625 3956 2600 3956 
Q 2575 3956 2563 3931 
L 2406 3725 
Q 2400 3719 2344 3719 
L 1819 3719 
Q 2294 4450 2613 4500 
Q 2650 4506 2700 4513 
Q 2794 4519 2744 4594 
Q 2463 4969 2394 4969 
Q 2369 4969 2350 4944 
L 2175 4756 
Q 2150 4719 2088 4719 
L 1300 4719 
Q 1475 5113 1619 5125 
Q 1700 5131 1719 5169 
Q 1725 5194 1675 5225 
Q 1488 5319 1238 5406 
Q 1194 5425 1175 5363 
Q 981 4419 256 3619 
Q 213 3581 244 3538 
Q 281 3494 331 3550 
Q 481 3681 613 3800 
Q 619 3681 625 3506 
L 625 3013 
Q 625 669 256 -375 
Q 213 -438 256 -488 
Q 300 -531 356 -475 
Q 731 188 856 1375 
L 1556 1375 
Q 1550 925 1525 344 
Q 1519 225 1594 275 
Q 1856 444 1863 500 
Q 1844 875 1838 1375 
L 2450 1375 
z
M 875 1588 
Q 900 1969 913 2425 
L 1563 2425 
L 1563 1744 
Q 1563 1663 1556 1569 
L 869 1569 
Q 869 1575 875 1588 
z
M 1844 1744 
L 1844 2425 
L 2450 2425 
L 2450 1569 
L 1838 1569 
Q 1838 1650 1844 1744 
z
M 1563 2619 
L 919 2619 
Q 925 2813 925 3013 
L 925 3525 
L 1563 3525 
L 1563 2619 
z
M 1844 3525 
L 2450 3525 
L 2450 2619 
L 1844 2619 
L 1844 3525 
z
M 731 3919 
Q 944 4163 1181 4525 
L 2063 4525 
Q 1888 4163 1669 3744 
Q 1663 3738 1656 3719 
L 931 3719 
Q 819 3819 731 3919 
z
M 4425 1244 
L 3544 1244 
Q 3256 1244 3019 1294 
Q 2975 1319 2950 1300 
Q 2931 1275 2975 1231 
Q 3069 1156 3094 1044 
Q 3113 988 3163 1006 
Q 3356 1044 3619 1050 
L 4425 1050 
L 4425 969 
Q 4419 400 4381 -431 
Q 4375 -563 4456 -500 
Q 4631 -388 4719 -331 
Q 4756 -306 4750 -256 
Q 4725 238 4725 969 
L 4725 1050 
L 5400 1050 
L 5975 1050 
Q 6056 1056 6088 1094 
Q 6131 1156 6063 1244 
Q 5950 1381 5788 1544 
Q 5744 1588 5700 1544 
L 5475 1288 
Q 5438 1244 5400 1244 
L 4725 1244 
L 4725 2125 
L 5056 2125 
L 5756 2125 
Q 5850 2131 5869 2175 
Q 5888 2231 5819 2325 
Q 5700 2481 5538 2656 
Q 5494 2700 5438 2650 
L 5219 2394 
Q 5156 2319 5075 2319 
L 4725 2319 
Q 4725 2700 4769 2813 
Q 4794 2875 4894 2925 
Q 4994 2981 4906 3025 
Q 4794 3088 4456 3194 
Q 4381 3219 4394 3113 
Q 4413 2825 4425 2319 
L 3675 2319 
Q 3738 2438 3794 2550 
Q 3869 2719 3900 2750 
Q 3963 2813 4019 2806 
Q 4075 2800 4081 2838 
Q 4088 2875 4006 2919 
Q 3913 2981 3669 3113 
Q 3569 3175 3556 3069 
Q 3563 2913 3419 2444 
Q 3281 1969 3063 1625 
Q 3019 1563 3063 1519 
Q 3106 1481 3169 1550 
Q 3375 1819 3563 2125 
L 4425 2125 
L 4425 1244 
z
M 3544 5019 
Q 3256 5019 3019 5075 
Q 2975 5100 2950 5081 
Q 2925 5056 2975 5013 
Q 3069 4931 3100 4819 
Q 3106 4763 3163 4781 
Q 3356 4819 3619 4825 
L 3900 4825 
L 4100 4825 
L 4156 4825 
Q 4131 4275 3988 3969 
Q 3888 3738 3625 3538 
Q 3356 3331 3038 3238 
Q 2944 3213 2950 3138 
Q 2969 3038 3081 3063 
Q 4000 3294 4300 3938 
Q 4438 4263 4525 4825 
L 5488 4825 
Q 5394 3850 5350 3763 
Q 5344 3756 5331 3744 
Q 5231 3650 4550 3700 
Q 4475 3719 4463 3656 
Q 4456 3594 4550 3581 
Q 5038 3488 5075 3231 
Q 5081 3194 5125 3219 
Q 5594 3406 5681 3731 
Q 5738 4050 5788 4706 
Q 5788 4769 5981 4844 
Q 6038 4863 6000 4906 
Q 5863 5056 5631 5250 
Q 5575 5313 5538 5250 
L 5394 5050 
Q 5369 5025 5300 5019 
L 4100 5019 
L 3900 5019 
L 3544 5019 
z
" transform="scale(0.015625)"/>
       <path id="BousungEG-Light-GB-6790" d="M 1325 2819 
L 1325 944 
Q 1319 375 1281 -456 
Q 1275 -588 1356 -525 
Q 1531 -413 1619 -356 
Q 1656 -331 1650 -281 
Q 1625 213 1625 944 
L 1625 3056 
Q 2019 2756 2344 2150 
Q 2400 2019 2438 2025 
Q 2475 2025 2563 2119 
Q 2644 2213 2631 2363 
Q 2606 2688 1625 3225 
L 1625 3850 
L 2125 3850 
L 2700 3850 
Q 2781 3856 2813 3894 
Q 2856 3956 2788 4044 
Q 2675 4181 2513 4344 
Q 2469 4388 2425 4344 
L 2200 4088 
Q 2163 4044 2125 4044 
L 1625 4044 
L 1625 4538 
Q 1625 4919 1669 5038 
Q 1694 5100 1794 5150 
Q 1894 5206 1806 5250 
Q 1694 5313 1356 5419 
Q 1281 5444 1294 5338 
Q 1319 5038 1325 4538 
L 1325 4044 
L 819 4044 
Q 531 4044 294 4094 
Q 250 4119 225 4100 
Q 206 4075 250 4031 
Q 344 3956 369 3844 
Q 388 3788 438 3806 
Q 631 3844 894 3850 
L 1250 3850 
Q 988 2631 238 1200 
Q 194 1119 231 1088 
Q 275 1044 325 1119 
Q 738 1756 1225 2813 
Q 1263 2894 1356 3356 
Q 1363 3381 1400 3375 
Q 1425 3369 1419 3338 
Q 1375 3088 1325 2819 
z
M 5025 3025 
L 5263 3025 
L 6044 3025 
Q 6125 3031 6138 3081 
Q 6144 3175 5700 3569 
Q 5644 3625 5600 3569 
L 5413 3306 
Q 5369 3263 5338 3231 
Q 5294 3225 5250 3219 
L 3350 3219 
Q 3356 3488 3356 3769 
L 3356 4663 
Q 3994 4681 4713 4794 
Q 5431 4906 5694 4844 
Q 5775 4819 5794 4844 
Q 5813 4869 5763 4931 
Q 5606 5100 5500 5306 
Q 5481 5350 5400 5313 
Q 4744 5025 3388 4800 
Q 3194 4913 3088 5013 
Q 3044 5056 3013 5050 
Q 2988 5031 2994 4981 
Q 3050 4731 3056 4494 
L 3056 3488 
Q 3056 1688 2819 919 
Q 2588 188 1881 -406 
Q 1819 -450 1856 -513 
Q 1900 -575 1981 -525 
Q 2850 113 3131 969 
Q 3300 1606 3344 3025 
L 4725 3025 
L 4725 944 
Q 4725 375 4681 -456 
Q 4675 -588 4763 -531 
Q 5044 -344 5050 -288 
Q 5025 206 5025 944 
L 5025 3025 
z
" transform="scale(0.015625)"/>
       <path id="BousungEG-Light-GB-41" d="M 2781 925 
L 1731 4338 
L 1438 4175 
L 756 2006 
L 756 1994 
L 394 819 
Q 313 569 75 556 
L 75 475 
L 725 475 
L 725 556 
Q 531 563 494 613 
Q 469 656 513 819 
L 850 1900 
L 2144 1900 
L 2456 925 
Q 2519 700 2463 625 
Q 2381 563 2156 556 
L 2156 475 
L 3144 475 
L 3144 556 
Q 2894 556 2781 925 
z
M 1500 3956 
L 2113 2006 
L 881 2006 
L 1500 3956 
z
" transform="scale(0.015625)"/>
       <path id="BousungEG-Light-GB-67" d="M 1438 -269 
Q 2169 -269 2494 -75 
Q 2819 113 2819 431 
Q 2819 775 2438 975 
Q 2100 1131 1625 1138 
Q 794 1144 800 1263 
Q 794 1394 1188 1494 
Q 1300 1475 1431 1475 
Q 1869 1475 2169 1681 
Q 2438 1869 2444 2231 
Q 2444 2556 2175 2819 
Q 2350 2875 2413 2875 
Q 2525 2869 2588 2794 
Q 2644 2713 2738 2713 
Q 2775 2713 2806 2756 
Q 2831 2800 2838 2875 
Q 2838 2956 2738 3038 
Q 2656 3100 2531 3106 
Q 2419 3106 2238 3025 
Q 2156 3000 2013 2944 
Q 1763 3100 1344 3100 
Q 944 3100 706 2900 
Q 406 2669 406 2288 
Q 406 1981 700 1719 
Q 819 1606 981 1544 
Q 813 1500 694 1425 
Q 463 1288 456 1138 
Q 456 1000 669 881 
Q 725 856 825 825 
Q 706 763 613 688 
Q 331 444 331 194 
Q 331 -50 675 -169 
Q 963 -263 1438 -269 
z
M 2375 644 
Q 2581 525 2581 375 
Q 2581 219 2338 94 
Q 2094 -25 1688 -25 
Q 1156 -25 913 56 
Q 663 138 656 369 
Q 656 594 919 750 
Q 963 775 1025 794 
Q 1256 769 1625 769 
Q 2138 769 2375 644 
z
M 731 2519 
Q 731 2688 888 2794 
Q 1025 2894 1275 2900 
Q 1600 2900 1875 2625 
Q 2119 2381 2119 2038 
Q 2119 1881 1956 1775 
Q 1769 1656 1519 1656 
Q 1213 1656 969 1931 
Q 738 2219 731 2519 
z
" transform="scale(0.015625)"/>
       <path id="BousungEG-Light-GB-74" d="M 1163 2963 
L 1163 1113 
Q 1163 775 1369 594 
Q 1563 419 1919 413 
Q 2244 413 2506 606 
Q 2738 775 2913 1231 
L 2788 1288 
Q 2638 963 2456 825 
Q 2263 675 2069 675 
Q 1763 675 1631 788 
Q 1494 919 1488 1113 
L 1488 2963 
L 2663 2963 
L 2731 3106 
L 1488 3106 
L 1488 4025 
L 1369 4025 
Q 1306 3575 994 3344 
Q 688 3150 388 3100 
Q 344 3106 294 3100 
L 294 2963 
L 1163 2963 
z
" transform="scale(0.015625)"/>
       <path id="BousungEG-Light-GB-503c" d="M 1331 3781 
Q 1575 4200 1763 4588 
Q 1938 4981 2013 5044 
Q 2075 5100 2138 5094 
Q 2181 5088 2194 5125 
Q 2200 5150 2125 5206 
Q 2044 5281 1800 5425 
Q 1700 5488 1688 5381 
Q 1663 5056 1219 4069 
Q 769 3075 225 2400 
Q 169 2338 213 2294 
Q 256 2250 319 2319 
Q 788 2888 1088 3369 
Q 1094 3213 1100 2988 
L 1100 919 
Q 1094 350 1050 -481 
Q 1044 -600 1125 -556 
Q 1413 -388 1425 -325 
Q 1400 181 1400 919 
L 1400 2988 
Q 1400 3369 1444 3481 
Q 1463 3525 1550 3556 
Q 1706 3600 1575 3681 
Q 1494 3738 1331 3781 
z
M 5475 -106 
L 5225 -106 
L 5225 3238 
Q 5225 3356 5269 3419 
Q 5313 3481 5419 3500 
Q 5481 3519 5425 3569 
Q 5250 3725 5044 3875 
Q 5000 3913 4963 3863 
L 4819 3700 
Q 4794 3675 4756 3669 
L 3831 3669 
Q 3838 4063 3856 4400 
L 5225 4400 
L 5800 4400 
Q 5881 4406 5913 4444 
Q 5956 4506 5888 4594 
Q 5775 4731 5613 4894 
Q 5569 4938 5525 4894 
L 5300 4638 
Q 5263 4594 5225 4594 
L 3869 4594 
Q 3906 5013 3944 5081 
Q 3988 5156 4050 5169 
Q 4088 5175 4094 5213 
Q 4100 5250 4044 5275 
Q 3663 5469 3600 5444 
Q 3581 5425 3588 5369 
Q 3606 5006 3594 4594 
L 2469 4594 
Q 2181 4594 1944 4644 
Q 1900 4669 1875 4650 
Q 1856 4625 1900 4581 
Q 1994 4506 2019 4394 
Q 2038 4338 2088 4356 
Q 2281 4394 2544 4400 
L 3594 4400 
Q 3575 4056 3544 3669 
L 2863 3669 
Q 2713 3788 2650 3869 
Q 2606 3925 2575 3913 
Q 2550 3906 2556 3831 
Q 2600 3544 2600 3200 
L 2600 -106 
L 2119 -106 
Q 1831 -106 1594 -56 
Q 1550 -31 1525 -50 
Q 1506 -75 1550 -119 
Q 1644 -194 1669 -306 
Q 1688 -363 1738 -344 
Q 1931 -306 2194 -300 
L 5475 -300 
L 6050 -300 
Q 6131 -294 6163 -256 
Q 6206 -194 6138 -106 
Q 6025 31 5863 194 
Q 5819 238 5775 194 
L 5550 -63 
Q 5513 -106 5475 -106 
z
M 2900 625 
L 4925 625 
L 4925 -106 
L 2900 -106 
L 2900 625 
z
M 2900 1650 
L 4925 1650 
L 4925 819 
L 2900 819 
L 2900 1650 
z
M 2900 2575 
L 4925 2575 
L 4925 1844 
L 2900 1844 
L 2900 2575 
z
M 2900 3475 
L 4763 3475 
L 4925 3475 
L 4925 2769 
L 2900 2769 
L 2900 3475 
z
" transform="scale(0.015625)"/>
      </defs>
      <use xlink:href="#BousungEG-Light-GB-610f"/>
      <use xlink:href="#BousungEG-Light-GB-56fe" x="100"/>
      <use xlink:href="#BousungEG-Light-GB-89e3" x="200"/>
      <use xlink:href="#BousungEG-Light-GB-6790" x="300"/>
      <use xlink:href="#BousungEG-Light-GB-41" x="400"/>
      <use xlink:href="#BousungEG-Light-GB-67" x="450"/>
      <use xlink:href="#BousungEG-Light-GB-65" x="500"/>
      <use xlink:href="#BousungEG-Light-GB-6e" x="550"/>
      <use xlink:href="#BousungEG-Light-GB-74" x="600"/>
      <use xlink:href="#BousungEG-Light-GB-6d88" x="650"/>
      <use xlink:href="#BousungEG-Light-GB-8017" x="750"/>
      <use xlink:href="#BousungEG-Light-GB-54" x="850"/>
      <use xlink:href="#BousungEG-Light-GB-6f" x="900"/>
      <use xlink:href="#BousungEG-Light-GB-6b" x="950"/>
      <use xlink:href="#BousungEG-Light-GB-65" x="1000"/>
      <use xlink:href="#BousungEG-Light-GB-6e" x="1050"/>
      <use xlink:href="#BousungEG-Light-GB-ff08" x="1100"/>
      <use xlink:href="#BousungEG-Light-GB-5747" x="1200"/>
      <use xlink:href="#BousungEG-Light-GB-503c" x="1300"/>
      <use xlink:href="#BousungEG-Light-GB-ff09" x="1400"/>
     </g>
    </g>
    <g id="patch_39">
     <path d="M 41.238438 38.586328 
L 53.238438 38.586328 
L 53.238438 34.386328 
L 41.238438 34.386328 
z
" style="fill: url(#h63636f9b19); stroke: #000000; stroke-width: 0.8; stroke-linejoin: miter"/>
    </g>
    <g id="text_40">
     <!-- JSON生成Agent消耗Token（均值） -->
     <g transform="translate(58.038438 38.586328) scale(0.06 -0.06)">
      <defs>
       <path id="BousungEG-Light-GB-4a" d="M 2356 1419 
L 2356 3694 
Q 2356 4225 3031 4231 
L 3031 4338 
L 1350 4338 
L 1350 4231 
Q 2031 4231 2031 3694 
L 2031 1419 
Q 2031 925 1800 744 
Q 1575 569 1256 569 
Q 931 569 706 719 
Q 494 875 563 1038 
Q 625 1188 625 1281 
Q 625 1375 550 1438 
Q 475 1500 388 1506 
Q 306 1506 238 1444 
Q 175 1381 169 1219 
Q 169 931 444 694 
Q 781 413 1256 413 
Q 1731 413 2025 663 
Q 2350 931 2356 1419 
z
" transform="scale(0.015625)"/>
       <path id="BousungEG-Light-GB-53" d="M 356 3406 
Q 363 2744 1713 2306 
Q 2669 2006 2675 1394 
Q 2675 1050 2388 838 
Q 2081 625 1750 625 
Q 1350 625 1006 856 
Q 681 1088 331 1731 
L 231 1700 
L 400 969 
Q 1006 419 1750 413 
Q 2275 413 2656 694 
Q 2981 944 2981 1513 
Q 2975 2325 1781 2681 
Q 713 3006 719 3475 
Q 719 3781 975 3994 
Q 1244 4206 1763 4206 
Q 2063 4200 2325 3981 
Q 2588 3788 2700 3413 
L 2781 3413 
L 2831 4075 
Q 2269 4400 1763 4400 
Q 1063 4400 719 4106 
Q 356 3819 356 3406 
z
" transform="scale(0.015625)"/>
       <path id="BousungEG-Light-GB-4f" d="M 650 3819 
Q 194 3213 194 2331 
Q 194 1538 631 994 
Q 1088 413 1619 413 
Q 2131 413 2575 988 
Q 3013 1575 3013 2394 
Q 3013 3294 2569 3875 
Q 2188 4400 1631 4400 
Q 1100 4400 650 3819 
z
M 900 3706 
Q 1263 4256 1631 4263 
Q 1969 4263 2275 3831 
Q 2688 3231 2688 2394 
Q 2688 1494 2294 956 
Q 1969 556 1619 556 
Q 1281 556 913 1019 
Q 519 1513 519 2331 
Q 519 3069 900 3706 
z
" transform="scale(0.015625)"/>
       <path id="BousungEG-Light-GB-4e" d="M 675 3975 
L 2519 475 
L 2625 475 
L 2625 3813 
Q 2625 4231 3088 4231 
L 3088 4338 
L 2063 4338 
L 2063 4231 
Q 2519 4231 2519 3813 
L 2519 1175 
L 850 4338 
L 113 4338 
L 113 4231 
Q 569 4231 569 3838 
L 569 963 
Q 569 581 113 581 
L 113 475 
L 1131 475 
L 1131 581 
Q 675 581 675 963 
L 675 3975 
z
" transform="scale(0.015625)"/>
       <path id="BousungEG-Light-GB-751f" d="M 5175 -56 
L 3400 -56 
L 3400 1725 
L 4563 1725 
L 5344 1725 
Q 5425 1731 5438 1781 
Q 5444 1875 5000 2269 
Q 4944 2325 4900 2269 
L 4738 2038 
Q 4638 1925 4550 1919 
L 3400 1919 
L 3400 3550 
L 4913 3550 
L 5694 3550 
Q 5775 3556 5788 3606 
Q 5794 3700 5350 4094 
Q 5294 4150 5250 4094 
L 5063 3831 
Q 5019 3788 4988 3756 
Q 4944 3750 4900 3744 
L 3400 3744 
L 3400 4813 
Q 3400 4875 3444 4956 
Q 3469 5019 3563 5069 
Q 3663 5113 3575 5169 
Q 3463 5225 3131 5331 
Q 3069 5350 3075 5250 
Q 3094 5056 3100 4813 
L 3100 3744 
L 1431 3744 
Q 1625 4163 1750 4481 
Q 1775 4563 1813 4600 
Q 1850 4638 1988 4625 
Q 2069 4619 2081 4656 
Q 2088 4681 2050 4713 
Q 1881 4813 1606 4938 
Q 1531 4975 1506 4956 
Q 1481 4950 1469 4881 
Q 1219 3606 350 2138 
Q 325 2081 369 2056 
Q 413 2031 450 2088 
Q 919 2706 1344 3550 
L 3100 3550 
L 3100 1919 
L 1744 1919 
Q 1456 1919 1219 1975 
Q 1175 2000 1150 1981 
Q 1125 1956 1175 1913 
Q 1269 1831 1300 1719 
Q 1306 1663 1363 1681 
Q 1556 1719 1819 1725 
L 3100 1725 
L 3100 -56 
L 919 -56 
Q 631 -56 394 0 
Q 350 25 325 6 
Q 300 -19 350 -63 
Q 444 -144 475 -256 
Q 481 -313 538 -294 
Q 731 -256 994 -250 
L 5188 -250 
L 5969 -250 
Q 6050 -244 6063 -194 
Q 6069 -100 5625 294 
Q 5569 350 5525 294 
L 5363 63 
Q 5263 -50 5175 -56 
z
" transform="scale(0.015625)"/>
       <path id="BousungEG-Light-GB-6210" d="M 4275 819 
Q 4875 -50 5813 -425 
Q 6100 -506 6169 -438 
Q 6213 -375 6144 -288 
Q 5931 -44 6056 950 
Q 6063 1013 6006 1031 
Q 5950 1038 5938 969 
Q 5706 31 5619 0 
Q 5575 -6 5450 56 
Q 4888 413 4450 1056 
Q 4506 1150 4575 1238 
Q 4863 1731 5081 2444 
Q 5181 2781 5269 2856 
Q 5350 2931 5444 2925 
Q 5525 2925 5538 2956 
Q 5544 2981 5469 3031 
Q 4994 3313 4931 3281 
Q 4913 3275 4913 3219 
Q 4888 2563 4294 1344 
Q 3838 2244 3731 3825 
L 5256 3825 
L 5956 3825 
Q 6050 3831 6069 3875 
Q 6088 3931 6019 4025 
Q 5900 4181 5738 4356 
Q 5694 4400 5638 4350 
L 5419 4094 
Q 5356 4019 5275 4019 
L 3719 4019 
Q 3719 4844 3788 4931 
Q 3863 5031 3931 5044 
Q 3994 5050 4000 5081 
Q 4000 5106 3938 5144 
Q 3694 5256 3488 5319 
Q 3463 5338 3444 5313 
Q 3438 5294 3438 5244 
Q 3456 4925 3463 4019 
L 1263 4019 
Q 1125 4100 1038 4188 
Q 994 4231 963 4225 
Q 938 4206 944 4156 
Q 1000 3906 1006 3669 
L 1006 3138 
Q 1006 825 544 56 
Q 425 -131 269 -331 
Q 213 -375 256 -444 
Q 300 -506 381 -438 
Q 1150 294 1238 1494 
Q 1275 1931 1288 2475 
L 2588 2475 
Q 2550 763 2475 606 
Q 2456 569 2425 538 
Q 2331 438 1625 500 
Q 1550 519 1538 456 
Q 1531 394 1625 381 
Q 1988 306 2075 231 
Q 2156 169 2175 25 
Q 2181 -13 2231 13 
Q 2500 125 2700 356 
Q 2869 569 2875 1650 
Q 2875 2400 2956 2444 
Q 2994 2481 3088 2513 
Q 3131 2538 3100 2575 
Q 2963 2713 2731 2900 
Q 2675 2963 2638 2900 
L 2494 2700 
Q 2469 2675 2400 2669 
L 1294 2669 
Q 1300 3025 1306 3419 
L 1306 3825 
L 3469 3825 
Q 3525 2194 4131 1063 
Q 4125 1056 4125 1044 
Q 3519 144 2513 -313 
Q 2400 -369 2425 -444 
Q 2450 -519 2563 -469 
Q 3575 -19 4275 819 
z
M 4263 5106 
Q 4550 4919 4844 4438 
Q 4906 4319 4944 4319 
Q 4981 4325 5063 4425 
Q 5144 4519 5119 4669 
Q 5100 4881 4344 5213 
Q 4263 5256 4231 5200 
Q 4206 5144 4263 5106 
z
" transform="scale(0.015625)"/>
      </defs>
      <use xlink:href="#BousungEG-Light-GB-4a"/>
      <use xlink:href="#BousungEG-Light-GB-53" x="50"/>
      <use xlink:href="#BousungEG-Light-GB-4f" x="100"/>
      <use xlink:href="#BousungEG-Light-GB-4e" x="150"/>
      <use xlink:href="#BousungEG-Light-GB-751f" x="200"/>
      <use xlink:href="#BousungEG-Light-GB-6210" x="300"/>
      <use xlink:href="#BousungEG-Light-GB-41" x="400"/>
      <use xlink:href="#BousungEG-Light-GB-67" x="450"/>
      <use xlink:href="#BousungEG-Light-GB-65" x="500"/>
      <use xlink:href="#BousungEG-Light-GB-6e" x="550"/>
      <use xlink:href="#BousungEG-Light-GB-74" x="600"/>
      <use xlink:href="#BousungEG-Light-GB-6d88" x="650"/>
      <use xlink:href="#BousungEG-Light-GB-8017" x="750"/>
      <use xlink:href="#BousungEG-Light-GB-54" x="850"/>
      <use xlink:href="#BousungEG-Light-GB-6f" x="900"/>
      <use xlink:href="#BousungEG-Light-GB-6b" x="950"/>
      <use xlink:href="#BousungEG-Light-GB-65" x="1000"/>
      <use xlink:href="#BousungEG-Light-GB-6e" x="1050"/>
      <use xlink:href="#BousungEG-Light-GB-ff08" x="1100"/>
      <use xlink:href="#BousungEG-Light-GB-5747" x="1200"/>
      <use xlink:href="#BousungEG-Light-GB-503c" x="1300"/>
      <use xlink:href="#BousungEG-Light-GB-ff09" x="1400"/>
     </g>
    </g>
   </g>
  </g>
 </g>
 <defs>
  <clipPath id="p50ac2f88b1">
   <rect x="35.838438" y="18.912891" width="475.605" height="186.675"/>
  </clipPath>
 </defs>
 <defs>
  <pattern id="hcc87ff677d" patternUnits="userSpaceOnUse" x="0" y="0" width="72" height="72">
   <rect x="0" y="0" width="73" height="73" fill="#ffffff"/>
   <path d="M -36 36 
L 36 -36 
M -32 40 
L 40 -32 
M -28 44 
L 44 -28 
M -24 48 
L 48 -24 
M -20 52 
L 52 -20 
M -16 56 
L 56 -16 
M -12 60 
L 60 -12 
M -8 64 
L 64 -8 
M -4 68 
L 68 -4 
M 0 72 
L 72 0 
M 4 76 
L 76 4 
M 8 80 
L 80 8 
M 12 84 
L 84 12 
M 16 88 
L 88 16 
M 20 92 
L 92 20 
M 24 96 
L 96 24 
M 28 100 
L 100 28 
M 32 104 
L 104 32 
M 36 108 
L 108 36 
" style="fill: #000000; stroke: #000000; stroke-width: 1.0; stroke-linecap: butt; stroke-linejoin: miter"/>
  </pattern>
  <pattern id="h63636f9b19" patternUnits="userSpaceOnUse" x="0" y="0" width="72" height="72">
   <rect x="0" y="0" width="73" height="73" fill="#ffffff"/>
   <path d="M -36 36 
L 36 108 
M -32 32 
L 40 104 
M -28 28 
L 44 100 
M -24 24 
L 48 96 
M -20 20 
L 52 92 
M -16 16 
L 56 88 
M -12 12 
L 60 84 
M -8 8 
L 64 80 
M -4 4 
L 68 76 
M 0 0 
L 72 72 
M 4 -4 
L 76 68 
M 8 -8 
L 80 64 
M 12 -12 
L 84 60 
M 16 -16 
L 88 56 
M 20 -20 
L 92 52 
M 24 -24 
L 96 48 
M 28 -28 
L 100 44 
M 32 -32 
L 104 40 
M 36 -36 
L 108 36 
" style="fill: #000000; stroke: #000000; stroke-width: 1.0; stroke-linecap: butt; stroke-linejoin: miter"/>
  </pattern>
 </defs>
</svg>
